<svg xmlns="http://www.w3.org/2000/svg" viewBox="0 0 500 270"><defs><style>.cls-1{fill:#fff;}.cls-2,.cls-3{fill:#a6acbe;}.cls-3{isolation:isolate;opacity:0.2;}.cls-4{fill:#6f52ed;}.cls-5{fill:#ff7a00;}</style></defs><g id="Lager_2" data-name="Lager 2"><g id="Lager_2-2" data-name="Lager 2"><rect class="cls-1" width="500" height="270" rx="8"/><path class="cls-2" d="M55,238.18h1.35v5.48a2.34,2.34,0,0,1-.7,1.79,2.6,2.6,0,0,1-1.85.66,2.67,2.67,0,0,1-1.89-.62,2.2,2.2,0,0,1-.67-1.72H52.6a1.31,1.31,0,0,0,.3.94,1.22,1.22,0,0,0,.9.31,1.12,1.12,0,0,0,.87-.36,1.44,1.44,0,0,0,.33-1ZM61.25,246a2.71,2.71,0,0,1-.15-.54,2,2,0,0,1-1.52.65,2.06,2.06,0,0,1-1.43-.5,1.61,1.61,0,0,1-.55-1.24,1.63,1.63,0,0,1,.68-1.42,3.39,3.39,0,0,1,2-.5h.8v-.38a1,1,0,0,0-.25-.72,1,1,0,0,0-.77-.28,1.14,1.14,0,0,0-.73.23.68.68,0,0,0-.29.56h-1.3A1.41,1.41,0,0,1,58,241a2,2,0,0,1,.86-.65,3,3,0,0,1,1.21-.24,2.38,2.38,0,0,1,1.63.52,1.84,1.84,0,0,1,.63,1.44v2.62a2.92,2.92,0,0,0,.22,1.25V246Zm-1.43-.94a1.39,1.39,0,0,0,.72-.19,1.2,1.2,0,0,0,.52-.5v-1.1h-.7a2,2,0,0,0-1.09.25.82.82,0,0,0-.37.72.76.76,0,0,0,.25.6A1,1,0,0,0,59.82,245.06Zm5.12-4.87,0,.67a2.08,2.08,0,0,1,1.69-.78c1.21,0,1.83.69,1.85,2.08V246h-1.3v-3.76a1.18,1.18,0,0,0-.25-.82,1,1,0,0,0-.78-.27,1.26,1.26,0,0,0-1.17.71V246H63.71v-5.81Z"/><path class="cls-2" d="M24.93,209.12l.43-3.94h4.2v1.13H26.44l-.21,1.87a2.38,2.38,0,0,1,1.22-.31,2.16,2.16,0,0,1,1.74.71,2.86,2.86,0,0,1,.62,1.92,2.59,2.59,0,0,1-.69,1.9,2.49,2.49,0,0,1-1.88.71,2.65,2.65,0,0,1-1.78-.61,2.23,2.23,0,0,1-.77-1.61H26a1.37,1.37,0,0,0,.4.87,1.28,1.28,0,0,0,.87.31,1.14,1.14,0,0,0,.94-.43,1.9,1.9,0,0,0,.34-1.18,1.64,1.64,0,0,0-.37-1.12,1.3,1.3,0,0,0-1-.42,1.82,1.82,0,0,0-.61.09,1.9,1.9,0,0,0-.53.37Z"/><path class="cls-2" d="M28.12,181h-1.3v-6.28l-1.92.66v-1.11L28,173.15h.17Zm7.81-3.29a4.27,4.27,0,0,1-.63,2.54,2.23,2.23,0,0,1-1.92.86,2.26,2.26,0,0,1-1.91-.84,4.11,4.11,0,0,1-.65-2.47v-1.35a4.27,4.27,0,0,1,.62-2.53,2.63,2.63,0,0,1,3.84,0,4,4,0,0,1,.65,2.46Zm-1.3-1.46a3.35,3.35,0,0,0-.3-1.62,1.15,1.15,0,0,0-1.9,0,3,3,0,0,0-.31,1.51v1.78a3.45,3.45,0,0,0,.3,1.63,1,1,0,0,0,1,.54,1,1,0,0,0,.93-.5,3.19,3.19,0,0,0,.32-1.56Z"/><path class="cls-2" d="M28.12,149h-1.3v-6.28l-1.92.66v-1.11L28,141.15h.17Zm3.07-3.88.42-3.94h4.2v1.13H32.7l-.22,1.87a2.39,2.39,0,0,1,1.23-.31,2.15,2.15,0,0,1,1.73.71,2.81,2.81,0,0,1,.62,1.92,2.63,2.63,0,0,1-.68,1.9,2.53,2.53,0,0,1-1.89.71,2.65,2.65,0,0,1-1.78-.61,2.23,2.23,0,0,1-.77-1.61h1.27a1.33,1.33,0,0,0,.41.87,1.25,1.25,0,0,0,.87.31,1.12,1.12,0,0,0,.93-.43,1.84,1.84,0,0,0,.34-1.18,1.64,1.64,0,0,0-.37-1.12,1.3,1.3,0,0,0-1-.42,1.72,1.72,0,0,0-.6.09,1.8,1.8,0,0,0-.54.37Z"/><path class="cls-2" d="M29.84,117H24.59v-.9l2.6-2.84a6.34,6.34,0,0,0,.8-1.05,1.68,1.68,0,0,0,.24-.84,1.29,1.29,0,0,0-.31-.91,1.09,1.09,0,0,0-.85-.34,1.24,1.24,0,0,0-1,.39,1.51,1.51,0,0,0-.35,1h-1.3a2.51,2.51,0,0,1,.32-1.28,2.28,2.28,0,0,1,.93-.89,3,3,0,0,1,1.39-.32,2.62,2.62,0,0,1,1.8.58,2,2,0,0,1,.66,1.58,2.6,2.6,0,0,1-.34,1.23,6.4,6.4,0,0,1-1.08,1.45l-1.91,2h3.63Zm6.09-3.29a4.27,4.27,0,0,1-.63,2.54,2.23,2.23,0,0,1-1.92.86,2.28,2.28,0,0,1-1.91-.83,4.17,4.17,0,0,1-.65-2.48v-1.36a4.25,4.25,0,0,1,.62-2.52,2.63,2.63,0,0,1,3.84,0,4,4,0,0,1,.65,2.46Zm-1.3-1.46a3.25,3.25,0,0,0-.3-1.61,1.15,1.15,0,0,0-1.9,0,3,3,0,0,0-.31,1.51v1.78a3.45,3.45,0,0,0,.3,1.63,1,1,0,0,0,1,.54,1,1,0,0,0,.93-.5,3.19,3.19,0,0,0,.32-1.56Z"/><path class="cls-2" d="M29.84,85H24.59v-.9l2.6-2.84a6.34,6.34,0,0,0,.8-1.05,1.68,1.68,0,0,0,.24-.84,1.29,1.29,0,0,0-.31-.91,1.09,1.09,0,0,0-.85-.34,1.24,1.24,0,0,0-1,.39,1.51,1.51,0,0,0-.35,1h-1.3a2.51,2.51,0,0,1,.32-1.28,2.28,2.28,0,0,1,.93-.89,3,3,0,0,1,1.39-.32,2.62,2.62,0,0,1,1.8.58,2,2,0,0,1,.66,1.58,2.6,2.6,0,0,1-.34,1.23,6.4,6.4,0,0,1-1.08,1.45l-1.91,2h3.63Zm1.35-3.88.42-3.94h4.2v1.13H32.7l-.22,1.87a2.39,2.39,0,0,1,1.23-.31,2.15,2.15,0,0,1,1.73.71,2.81,2.81,0,0,1,.62,1.92,2.63,2.63,0,0,1-.68,1.9,2.53,2.53,0,0,1-1.89.71,2.6,2.6,0,0,1-1.78-.61,2.22,2.22,0,0,1-.77-1.61h1.27a1.33,1.33,0,0,0,.41.87,1.2,1.2,0,0,0,.87.31,1.12,1.12,0,0,0,.93-.43,1.84,1.84,0,0,0,.34-1.18,1.64,1.64,0,0,0-.37-1.12,1.3,1.3,0,0,0-1-.42,1.72,1.72,0,0,0-.6.09,1.8,1.8,0,0,0-.54.37Z"/><path d="M32,32A3.34,3.34,0,0,1,30.9,34.3a4.11,4.11,0,0,1-4.48.31,3.48,3.48,0,0,1-1.3-1.5,5.39,5.39,0,0,1-.47-2.24V30a5.37,5.37,0,0,1,.46-2.3,3.47,3.47,0,0,1,1.33-1.54,3.72,3.72,0,0,1,2-.54,3.62,3.62,0,0,1,2.47.83A3.49,3.49,0,0,1,32,28.81h-1.6a2.23,2.23,0,0,0-.58-1.43,2.17,2.17,0,0,0-3,.32,3.84,3.84,0,0,0-.57,2.24v.82A4.09,4.09,0,0,0,26.79,33a1.79,1.79,0,0,0,1.58.79,2.09,2.09,0,0,0,1.42-.42,2.21,2.21,0,0,0,.6-1.42Zm2.93,3H33.38V25.25h1.54Zm3.33,0H36.71V28.13h1.54Zm-1.64-8.65a.84.84,0,0,1,.22-.59.87.87,0,0,1,.65-.24.85.85,0,0,1,.65.24.86.86,0,0,1,0,1.17.89.89,0,0,1-.65.23.9.9,0,0,1-.65-.23A.83.83,0,0,1,36.61,26.35ZM43,35.13a3.22,3.22,0,0,1-2.38-.92,3.36,3.36,0,0,1-.91-2.47v-.19a4,4,0,0,1,.4-1.83A3,3,0,0,1,42.78,28a2.69,2.69,0,0,1,2.17.9,3.79,3.79,0,0,1,.77,2.53v.62H41.23a2,2,0,0,0,.56,1.35,1.74,1.74,0,0,0,1.26.5A2.1,2.1,0,0,0,44.78,33l.83.79a2.87,2.87,0,0,1-1.11,1A3.49,3.49,0,0,1,43,35.13Zm-.18-5.89a1.29,1.29,0,0,0-1,.45,2.27,2.27,0,0,0-.5,1.23h2.94v-.11a1.84,1.84,0,0,0-.41-1.17A1.31,1.31,0,0,0,42.78,29.24Zm5.57-1.11,0,.8a2.47,2.47,0,0,1,2-.93q2.14,0,2.19,2.46V35H51V30.55a1.36,1.36,0,0,0-.28-1,1.14,1.14,0,0,0-.92-.32,1.48,1.48,0,0,0-1.39.84V35H46.9V28.13Zm7.74-1.67v1.67H57.3v1.14H56.09v3.84a.88.88,0,0,0,.15.57.76.76,0,0,0,.56.17,2.48,2.48,0,0,0,.54-.06V35a3.71,3.71,0,0,1-1,.15c-1.18,0-1.78-.66-1.78-2v-3.9H53.42V28.13h1.12V26.46Zm9.18,5H63.48V35H61.87V25.76h3.25a3.77,3.77,0,0,1,2.47.72,2.52,2.52,0,0,1,.87,2.07A2.62,2.62,0,0,1,68,30.11a2.82,2.82,0,0,1-1.25.95l2.08,3.86V35H67.12Zm-1.79-1.29h1.65a1.86,1.86,0,0,0,1.27-.41,1.44,1.44,0,0,0,.45-1.12,1.53,1.53,0,0,0-.42-1.15,1.8,1.8,0,0,0-1.26-.42H63.48Zm9.38,5a3.22,3.22,0,0,1-2.38-.92,3.36,3.36,0,0,1-.91-2.47v-.19A4.17,4.17,0,0,1,70,29.72a3.05,3.05,0,0,1,1.12-1.26,3,3,0,0,1,1.6-.46,2.65,2.65,0,0,1,2.16.9,3.73,3.73,0,0,1,.77,2.53v.62H71.12a2.1,2.1,0,0,0,.57,1.35,1.71,1.71,0,0,0,1.26.5A2.09,2.09,0,0,0,74.67,33l.83.79a2.78,2.78,0,0,1-1.1,1A3.52,3.52,0,0,1,72.86,35.13Zm-.19-5.89a1.29,1.29,0,0,0-1,.45,2.27,2.27,0,0,0-.5,1.23h2.94v-.11a1.84,1.84,0,0,0-.41-1.17A1.32,1.32,0,0,0,72.67,29.24Zm10.16,2.4a4.1,4.1,0,0,1-.72,2.54,2.34,2.34,0,0,1-2,1,2.3,2.3,0,0,1-1.8-.75v3.26H76.81V28.13h1.42l.07.7A2.26,2.26,0,0,1,80.14,28a2.34,2.34,0,0,1,2,.94,4.18,4.18,0,0,1,.72,2.6Zm-1.54-.14a2.81,2.81,0,0,0-.41-1.63,1.33,1.33,0,0,0-1.17-.6,1.4,1.4,0,0,0-1.35.78V33.1a1.42,1.42,0,0,0,1.37.8,1.34,1.34,0,0,0,1.15-.59A3.25,3.25,0,0,0,81.29,31.5ZM85.78,35H84.24V25.25h1.54Zm3.33,0H87.57V28.13h1.54Zm-1.64-8.65a.8.8,0,0,1,.22-.59.85.85,0,0,1,.65-.24.87.87,0,0,1,.65.24.86.86,0,0,1,0,1.17.9.9,0,0,1-.65.23.89.89,0,0,1-.65-.23A.79.79,0,0,1,87.47,26.35Zm6.35,8.78a3.22,3.22,0,0,1-2.38-.92,3.36,3.36,0,0,1-.91-2.47v-.19a4.17,4.17,0,0,1,.39-1.83A3.05,3.05,0,0,1,92,28.46a3,3,0,0,1,1.6-.46,2.65,2.65,0,0,1,2.16.9,3.73,3.73,0,0,1,.77,2.53v.62H92.08a2.1,2.1,0,0,0,.57,1.35,1.71,1.71,0,0,0,1.26.5A2.09,2.09,0,0,0,95.63,33l.83.79a2.78,2.78,0,0,1-1.1,1A3.52,3.52,0,0,1,93.82,35.13Zm-.19-5.89a1.29,1.29,0,0,0-1,.45,2.27,2.27,0,0,0-.5,1.23h2.94v-.11a1.84,1.84,0,0,0-.41-1.17A1.32,1.32,0,0,0,93.63,29.24Zm8,3.89a.68.68,0,0,0-.34-.62,3.36,3.36,0,0,0-1.12-.39,6.16,6.16,0,0,1-1.31-.41,1.76,1.76,0,0,1-1.16-1.62,1.83,1.83,0,0,1,.75-1.49,2.94,2.94,0,0,1,1.9-.6,3.11,3.11,0,0,1,2,.61,1.94,1.94,0,0,1,.76,1.58h-1.54a.93.93,0,0,0-.33-.73,1.25,1.25,0,0,0-.88-.3,1.36,1.36,0,0,0-.83.24.73.73,0,0,0-.32.62.64.64,0,0,0,.3.56,4.32,4.32,0,0,0,1.21.4,5.72,5.72,0,0,1,1.42.47,2,2,0,0,1,.77.66,1.67,1.67,0,0,1,.25.94,1.81,1.81,0,0,1-.76,1.51,3.33,3.33,0,0,1-2,.57,3.44,3.44,0,0,1-1.5-.31,2.4,2.4,0,0,1-1-.84,1.92,1.92,0,0,1-.37-1.14H99a1.1,1.1,0,0,0,.41.84,1.66,1.66,0,0,0,1,.29,1.52,1.52,0,0,0,.93-.23A.71.71,0,0,0,101.62,33.13Z"/><path class="cls-2" d="M93.3,242.69H90.15V246H88.79v-7.82h5v1.09H90.15v2.33H93.3Zm3.86,3.42a2.73,2.73,0,0,1-2-.78,2.86,2.86,0,0,1-.76-2.09v-.16a3.53,3.53,0,0,1,.33-1.55,2.49,2.49,0,0,1,2.3-1.45,2.26,2.26,0,0,1,1.83.76,3.2,3.2,0,0,1,.65,2.14v.53h-3.8a1.76,1.76,0,0,0,.48,1.14,1.45,1.45,0,0,0,1.06.42,1.77,1.77,0,0,0,1.46-.73l.71.67a2.38,2.38,0,0,1-.94.81A2.89,2.89,0,0,1,97.16,246.11Zm-.16-5a1.1,1.1,0,0,0-.87.37,2,2,0,0,0-.42,1.05H98.2v-.09a1.6,1.6,0,0,0-.35-1A1.07,1.07,0,0,0,97,241.13Zm8.61,2a3.53,3.53,0,0,1-.61,2.16,2,2,0,0,1-1.66.8,1.9,1.9,0,0,1-1.59-.74l-.06.63H100.5v-8.25h1.31v3a1.86,1.86,0,0,1,1.52-.67,2,2,0,0,1,1.67.79,3.58,3.58,0,0,1,.61,2.21ZM104.3,243a2.5,2.5,0,0,0-.33-1.42,1.13,1.13,0,0,0-1-.47,1.22,1.22,0,0,0-1.19.74v2.4a1.22,1.22,0,0,0,1.2.75,1.11,1.11,0,0,0,.95-.45,2.46,2.46,0,0,0,.34-1.38Z"/><path class="cls-2" d="M127.56,238.18l2.25,6,2.25-6h1.76V246h-1.35v-2.58l.13-3.45-2.31,6h-1L127,240l.14,3.44V246h-1.36v-7.82ZM138.78,246a1.8,1.8,0,0,1-.15-.54,2.2,2.2,0,0,1-3,.15,1.61,1.61,0,0,1-.55-1.24,1.64,1.64,0,0,1,.69-1.42,3.35,3.35,0,0,1,2-.5h.8v-.38a.92.92,0,0,0-1-1,1.16,1.16,0,0,0-.73.23.67.67,0,0,0-.28.56h-1.31a1.47,1.47,0,0,1,.32-.89,2.11,2.11,0,0,1,.86-.65,3,3,0,0,1,1.22-.24,2.42,2.42,0,0,1,1.63.52,1.83,1.83,0,0,1,.62,1.44v2.62a2.92,2.92,0,0,0,.22,1.25V246Zm-1.44-.94a1.45,1.45,0,0,0,.73-.19,1.17,1.17,0,0,0,.51-.5v-1.1h-.7a2,2,0,0,0-1.09.25.84.84,0,0,0-.37.72.79.79,0,0,0,.25.6A1,1,0,0,0,137.34,245.06Zm7-3.68a3.08,3.08,0,0,0-.53,0,1.21,1.21,0,0,0-1.21.68v4h-1.31v-5.81h1.25l0,.65a1.47,1.47,0,0,1,1.31-.76,1.19,1.19,0,0,1,.46.08Z"/><path class="cls-2" d="M167.17,244.18h-3l-.63,1.82H162.1l3-7.82h1.22l3,7.82h-1.42Zm-2.65-1.1h2.27l-1.13-3.24Zm10.31.07a3.48,3.48,0,0,1-.62,2.16,2.12,2.12,0,0,1-3.17.17v2.75h-1.31v-8h1.21l.05.59a1.91,1.91,0,0,1,1.56-.7,2,2,0,0,1,1.67.8,3.52,3.52,0,0,1,.61,2.19Zm-1.3-.11a2.43,2.43,0,0,0-.35-1.38,1.12,1.12,0,0,0-1-.51,1.19,1.19,0,0,0-1.15.66v2.58a1.22,1.22,0,0,0,1.16.68,1.11,1.11,0,0,0,1-.5A2.66,2.66,0,0,0,173.53,243Zm5.45-1.66a3.08,3.08,0,0,0-.53,0,1.21,1.21,0,0,0-1.21.68v4h-1.31v-5.81h1.25l0,.65a1.47,1.47,0,0,1,1.31-.76,1.19,1.19,0,0,1,.46.08Z"/><path class="cls-2" d="M201.56,238.18l2.25,6,2.25-6h1.76V246h-1.35v-2.58l.13-3.45-2.31,6h-1L201,240l.14,3.44V246h-1.36v-7.82ZM212.78,246a1.8,1.8,0,0,1-.15-.54,2.2,2.2,0,0,1-3,.15,1.61,1.61,0,0,1-.55-1.24,1.64,1.64,0,0,1,.69-1.42,3.35,3.35,0,0,1,2-.5h.8v-.38a.92.92,0,0,0-1-1,1.16,1.16,0,0,0-.73.23.67.67,0,0,0-.28.56h-1.31a1.47,1.47,0,0,1,.32-.89,2.11,2.11,0,0,1,.86-.65,3,3,0,0,1,1.22-.24,2.42,2.42,0,0,1,1.63.52,1.83,1.83,0,0,1,.62,1.44v2.62a2.92,2.92,0,0,0,.22,1.25V246Zm-1.44-.94a1.45,1.45,0,0,0,.73-.19,1.17,1.17,0,0,0,.51-.5v-1.1h-.7a2,2,0,0,0-1.09.25.84.84,0,0,0-.37.72.79.79,0,0,0,.25.6A1,1,0,0,0,211.34,245.06Zm5.86-.93,1.18-3.94h1.39l-2.3,6.69a1.89,1.89,0,0,1-1.81,1.47,2.16,2.16,0,0,1-.63-.1v-1l.25,0a1.17,1.17,0,0,0,.74-.19,1.11,1.11,0,0,0,.4-.6l.19-.5-2-5.78H216Z"/><path class="cls-2" d="M240,238.18h1.35v5.48a2.34,2.34,0,0,1-.7,1.79,2.59,2.59,0,0,1-1.85.66,2.67,2.67,0,0,1-1.89-.62,2.2,2.2,0,0,1-.67-1.72h1.36a1.31,1.31,0,0,0,.3.94,1.22,1.22,0,0,0,.9.31,1.12,1.12,0,0,0,.87-.36,1.44,1.44,0,0,0,.33-1Zm6.3,7.25a2,2,0,0,1-1.63.68,1.8,1.8,0,0,1-1.43-.56,2.32,2.32,0,0,1-.49-1.6v-3.76h1.31v3.75c0,.74.3,1.1.92,1.1a1.28,1.28,0,0,0,1.28-.68v-4.17h1.3V246h-1.23Zm3.8-5.24,0,.67a2.1,2.1,0,0,1,1.69-.78c1.21,0,1.83.69,1.85,2.08V246h-1.3v-3.76a1.13,1.13,0,0,0-.25-.82,1,1,0,0,0-.77-.27,1.27,1.27,0,0,0-1.18.71V246h-1.3v-5.81Z"/><path class="cls-2" d="M277,238.18h1.35v5.48a2.37,2.37,0,0,1-.7,1.79,2.59,2.59,0,0,1-1.85.66,2.67,2.67,0,0,1-1.89-.62,2.2,2.2,0,0,1-.67-1.72h1.36a1.31,1.31,0,0,0,.3.94,1.22,1.22,0,0,0,.9.31,1.12,1.12,0,0,0,.87-.36,1.44,1.44,0,0,0,.33-1Zm6.3,7.25a2,2,0,0,1-1.63.68,1.83,1.83,0,0,1-1.44-.56,2.37,2.37,0,0,1-.48-1.6v-3.76h1.31v3.75c0,.74.3,1.1.92,1.1a1.28,1.28,0,0,0,1.28-.68v-4.17h1.3V246h-1.23Zm4,.57H286v-8.25h1.3Z"/><path class="cls-2" d="M315.17,244.18h-3l-.63,1.82H310.1l2.95-7.82h1.22l3,7.82h-1.42Zm-2.65-1.1h2.27l-1.13-3.24Zm8.93,2.35a2,2,0,0,1-1.63.68,1.83,1.83,0,0,1-1.44-.56,2.37,2.37,0,0,1-.48-1.6v-3.76h1.31v3.75c0,.74.3,1.1.91,1.1a1.28,1.28,0,0,0,1.29-.68v-4.17h1.3V246h-1.23Zm2.36-2.38a3.43,3.43,0,0,1,.64-2.16,2,2,0,0,1,1.69-.81,1.92,1.92,0,0,1,1.56.69l.06-.58h1.18v5.63a2.33,2.33,0,0,1-.72,1.81,2.69,2.69,0,0,1-1.91.66,3.11,3.11,0,0,1-1.26-.27,2.3,2.3,0,0,1-.92-.69l.62-.79a1.85,1.85,0,0,0,1.48.72,1.42,1.42,0,0,0,1-.36,1.32,1.32,0,0,0,.37-1v-.39a1.9,1.9,0,0,1-1.5.63,2,2,0,0,1-1.67-.81A3.52,3.52,0,0,1,323.81,243.05Zm1.3.11a2.31,2.31,0,0,0,.36,1.38,1.14,1.14,0,0,0,1,.5,1.24,1.24,0,0,0,1.17-.67v-2.56a1.23,1.23,0,0,0-1.16-.66,1.15,1.15,0,0,0-1,.51A2.59,2.59,0,0,0,325.11,243.16Z"/><path class="cls-2" d="M351.88,244a1,1,0,0,0-.36-.8,4.55,4.55,0,0,0-1.31-.56,6,6,0,0,1-1.5-.64,2,2,0,0,1-1.07-1.75,1.9,1.9,0,0,1,.77-1.56,3.16,3.16,0,0,1,2-.61,3.43,3.43,0,0,1,1.46.3,2.4,2.4,0,0,1,1,.86,2.22,2.22,0,0,1,.37,1.23h-1.36a1.22,1.22,0,0,0-.38-1,1.55,1.55,0,0,0-1.1-.35,1.69,1.69,0,0,0-1,.28,1,1,0,0,0-.36.8.87.87,0,0,0,.4.72,4.55,4.55,0,0,0,1.31.55,6,6,0,0,1,1.46.62,2.3,2.3,0,0,1,.81.8,2.07,2.07,0,0,1,.26,1,1.85,1.85,0,0,1-.75,1.55,3.2,3.2,0,0,1-2,.58,4,4,0,0,1-1.56-.31,2.66,2.66,0,0,1-1.11-.87,2.19,2.19,0,0,1-.39-1.29h1.36a1.26,1.26,0,0,0,.44,1,1.93,1.93,0,0,0,1.26.36,1.66,1.66,0,0,0,1.06-.28A.94.94,0,0,0,351.88,244Zm5,2.12a2.73,2.73,0,0,1-2-.78,2.86,2.86,0,0,1-.77-2.09v-.16a3.53,3.53,0,0,1,.34-1.55,2.49,2.49,0,0,1,2.3-1.45,2.26,2.26,0,0,1,1.83.76,3.2,3.2,0,0,1,.65,2.14v.53h-3.8a1.76,1.76,0,0,0,.48,1.14,1.45,1.45,0,0,0,1.06.42,1.77,1.77,0,0,0,1.46-.73l.71.67a2.38,2.38,0,0,1-.94.81A2.89,2.89,0,0,1,356.87,246.11Zm-.16-5a1.1,1.1,0,0,0-.87.37,2,2,0,0,0-.42,1.05h2.49v-.09a1.6,1.6,0,0,0-.35-1A1.07,1.07,0,0,0,356.71,241.13Zm8.59,2a3.48,3.48,0,0,1-.61,2.16,2.12,2.12,0,0,1-3.17.17v2.75h-1.31v-8h1.21l.05.59a1.89,1.89,0,0,1,1.56-.7,2,2,0,0,1,1.67.8,3.52,3.52,0,0,1,.6,2.19ZM364,243a2.43,2.43,0,0,0-.35-1.38,1.12,1.12,0,0,0-1-.51,1.19,1.19,0,0,0-1.15.66v2.58a1.21,1.21,0,0,0,1.16.68,1.13,1.13,0,0,0,1-.5A2.66,2.66,0,0,0,364,243Z"/><path class="cls-2" d="M391,242.29a4.88,4.88,0,0,1-.4,2,3.13,3.13,0,0,1-1.14,1.34,3.35,3.35,0,0,1-3.39,0,3.12,3.12,0,0,1-1.15-1.33,4.58,4.58,0,0,1-.41-2v-.44a4.73,4.73,0,0,1,.4-2,3,3,0,0,1,1.15-1.34,3.09,3.09,0,0,1,1.69-.47,3.17,3.17,0,0,1,1.69.46,3,3,0,0,1,1.15,1.32,4.87,4.87,0,0,1,.41,2Zm-1.36-.4a3.41,3.41,0,0,0-.5-2,1.74,1.74,0,0,0-2.77,0,3.3,3.3,0,0,0-.5,2v.45a3.38,3.38,0,0,0,.5,2,1.74,1.74,0,0,0,2.78,0,3.48,3.48,0,0,0,.49-2Zm5,3.18a1.16,1.16,0,0,0,.81-.29,1,1,0,0,0,.35-.7H397a2,2,0,0,1-.34,1,2.22,2.22,0,0,1-.86.74,2.46,2.46,0,0,1-1.17.28,2.51,2.51,0,0,1-1.94-.79,3.16,3.16,0,0,1-.71-2.18V243a3.09,3.09,0,0,1,.71-2.12,2.46,2.46,0,0,1,1.93-.8,2.36,2.36,0,0,1,1.69.61,2.17,2.17,0,0,1,.69,1.58h-1.23a1.21,1.21,0,0,0-.35-.82,1.1,1.1,0,0,0-.81-.32,1.15,1.15,0,0,0-1,.46,2.39,2.39,0,0,0-.35,1.39v.21a2.44,2.44,0,0,0,.34,1.41A1.16,1.16,0,0,0,394.65,245.07Zm5-6.29v1.41h1v1h-1v3.25a.71.71,0,0,0,.13.48.6.6,0,0,0,.47.15,1.74,1.74,0,0,0,.45-.06v1a2.88,2.88,0,0,1-.85.13c-1,0-1.51-.56-1.51-1.66v-3.3h-1v-1h1v-1.41Z"/><path class="cls-2" d="M427,246h-1.36l-3.49-5.55V246H420.8v-7.82h1.35l3.5,5.57v-5.57H427Zm1.23-3a3.52,3.52,0,0,1,.34-1.54,2.55,2.55,0,0,1,.95-1.05,2.74,2.74,0,0,1,1.41-.37,2.53,2.53,0,0,1,1.91.76,3,3,0,0,1,.79,2v.3a3.32,3.32,0,0,1-.34,1.54,2.4,2.4,0,0,1-.94,1.05,2.76,2.76,0,0,1-1.42.37,2.51,2.51,0,0,1-2-.82,3.17,3.17,0,0,1-.74-2.19Zm1.31.11a2.34,2.34,0,0,0,.37,1.41,1.29,1.29,0,0,0,2.06,0,2.63,2.63,0,0,0,.37-1.51,2.35,2.35,0,0,0-.38-1.4,1.23,1.23,0,0,0-1-.51,1.18,1.18,0,0,0-1,.51A2.46,2.46,0,0,0,429.54,243.15Zm7.16,1.2,1.23-4.16h1.35l-2,5.81h-1.13l-2-5.81h1.36Z"/><path class="cls-2" d="M457.8,246v-7.82h2.3a3.57,3.57,0,0,1,1.84.46,3.22,3.22,0,0,1,1.25,1.31,4.24,4.24,0,0,1,.44,2v.39a4.07,4.07,0,0,1-.45,2,3,3,0,0,1-1.26,1.3,3.7,3.7,0,0,1-1.87.46Zm1.35-6.73v5.64H460a2.05,2.05,0,0,0,1.64-.66,2.9,2.9,0,0,0,.58-1.92v-.44a3,3,0,0,0-.55-1.94,2,2,0,0,0-1.61-.68Zm8.27,6.84a2.73,2.73,0,0,1-2-.78,2.86,2.86,0,0,1-.77-2.09v-.16a3.53,3.53,0,0,1,.33-1.55,2.67,2.67,0,0,1,1-1.07,2.55,2.55,0,0,1,1.35-.38,2.27,2.27,0,0,1,1.84.76,3.2,3.2,0,0,1,.65,2.14v.53H466a1.76,1.76,0,0,0,.48,1.14,1.43,1.43,0,0,0,1.06.42,1.77,1.77,0,0,0,1.46-.73l.7.67a2.29,2.29,0,0,1-.93.81A2.92,2.92,0,0,1,467.42,246.11Zm-.16-5a1.1,1.1,0,0,0-.87.37,2,2,0,0,0-.42,1.05h2.49v-.09a1.6,1.6,0,0,0-.35-1A1.09,1.09,0,0,0,467.26,241.13Zm5.89,3.94a1.16,1.16,0,0,0,.81-.29,1,1,0,0,0,.35-.7h1.23a2,2,0,0,1-.34,1,2.22,2.22,0,0,1-.86.74,2.46,2.46,0,0,1-1.17.28,2.51,2.51,0,0,1-1.94-.79,3.16,3.16,0,0,1-.71-2.18V243a3.09,3.09,0,0,1,.71-2.12,2.46,2.46,0,0,1,1.93-.8,2.36,2.36,0,0,1,1.69.61,2.17,2.17,0,0,1,.69,1.58h-1.23a1.21,1.21,0,0,0-.35-.82,1.1,1.1,0,0,0-.81-.32,1.15,1.15,0,0,0-1,.46,2.39,2.39,0,0,0-.35,1.39v.21a2.44,2.44,0,0,0,.34,1.41A1.16,1.16,0,0,0,473.15,245.07Z"/><rect class="cls-3" x="24" y="50" width="452" height="1"/><path class="cls-4" d="M57.5,118h0a1.5,1.5,0,0,1,1.5,1.5v107a1.5,1.5,0,0,1-1.5,1.5h0a1.5,1.5,0,0,1-1.5-1.5v-107A1.5,1.5,0,0,1,57.5,118Z"/><path class="cls-4" d="M94.5,176h0a1.5,1.5,0,0,1,1.5,1.5v49a1.5,1.5,0,0,1-1.5,1.5h0a1.5,1.5,0,0,1-1.5-1.5v-49A1.5,1.5,0,0,1,94.5,176Z"/><path class="cls-4" d="M131.5,118h0a1.5,1.5,0,0,1,1.5,1.5v107a1.5,1.5,0,0,1-1.5,1.5h0a1.5,1.5,0,0,1-1.5-1.5v-107A1.5,1.5,0,0,1,131.5,118Z"/><path class="cls-4" d="M168.5,130h0a1.5,1.5,0,0,1,1.5,1.5v95a1.5,1.5,0,0,1-1.5,1.5h0a1.5,1.5,0,0,1-1.5-1.5v-95A1.5,1.5,0,0,1,168.5,130Z"/><path class="cls-4" d="M205.5,104h0a1.5,1.5,0,0,1,1.5,1.5v121a1.5,1.5,0,0,1-1.5,1.5h0a1.5,1.5,0,0,1-1.5-1.5v-121A1.5,1.5,0,0,1,205.5,104Z"/><path class="cls-4" d="M242.5,169h0a1.5,1.5,0,0,1,1.5,1.5v56a1.5,1.5,0,0,1-1.5,1.5h0a1.5,1.5,0,0,1-1.5-1.5v-56A1.5,1.5,0,0,1,242.5,169Z"/><path class="cls-4" d="M279.5,118h0a1.5,1.5,0,0,1,1.5,1.5v107a1.5,1.5,0,0,1-1.5,1.5h0a1.5,1.5,0,0,1-1.5-1.5v-107A1.5,1.5,0,0,1,279.5,118Z"/><path class="cls-4" d="M316.5,107h0a1.5,1.5,0,0,1,1.5,1.5v118a1.5,1.5,0,0,1-1.5,1.5h0a1.5,1.5,0,0,1-1.5-1.5v-118A1.5,1.5,0,0,1,316.5,107Z"/><path class="cls-4" d="M353.5,127h0a1.5,1.5,0,0,1,1.5,1.5v98a1.5,1.5,0,0,1-1.5,1.5h0a1.5,1.5,0,0,1-1.5-1.5v-98A1.5,1.5,0,0,1,353.5,127Z"/><path class="cls-4" d="M390.5,118h0a1.5,1.5,0,0,1,1.5,1.5v107a1.5,1.5,0,0,1-1.5,1.5h0a1.5,1.5,0,0,1-1.5-1.5v-107A1.5,1.5,0,0,1,390.5,118Z"/><path class="cls-4" d="M427.5,125h0a1.5,1.5,0,0,1,1.5,1.5v100a1.5,1.5,0,0,1-1.5,1.5h0a1.5,1.5,0,0,1-1.5-1.5v-100A1.5,1.5,0,0,1,427.5,125Z"/><path class="cls-4" d="M464.5,96h0a1.5,1.5,0,0,1,1.5,1.5v129a1.5,1.5,0,0,1-1.5,1.5h0a1.5,1.5,0,0,1-1.5-1.5V97.5A1.5,1.5,0,0,1,464.5,96Z"/><path class="cls-5" d="M63.5,134h0a1.5,1.5,0,0,1,1.5,1.5v91a1.5,1.5,0,0,1-1.5,1.5h0a1.5,1.5,0,0,1-1.5-1.5v-91A1.5,1.5,0,0,1,63.5,134Z"/><path class="cls-5" d="M137.5,134h0a1.5,1.5,0,0,1,1.5,1.5v91a1.5,1.5,0,0,1-1.5,1.5h0a1.5,1.5,0,0,1-1.5-1.5v-91A1.5,1.5,0,0,1,137.5,134Z"/><path class="cls-5" d="M100.5,189h0a1.5,1.5,0,0,1,1.5,1.5v36a1.5,1.5,0,0,1-1.5,1.5h0a1.5,1.5,0,0,1-1.5-1.5v-36A1.5,1.5,0,0,1,100.5,189Z"/><path class="cls-5" d="M174.5,150h0a1.5,1.5,0,0,1,1.5,1.5v75a1.5,1.5,0,0,1-1.5,1.5h0a1.5,1.5,0,0,1-1.5-1.5v-75A1.5,1.5,0,0,1,174.5,150Z"/><path class="cls-5" d="M211.5,134h0a1.5,1.5,0,0,1,1.5,1.5v91a1.5,1.5,0,0,1-1.5,1.5h0a1.5,1.5,0,0,1-1.5-1.5v-91A1.5,1.5,0,0,1,211.5,134Z"/><path class="cls-5" d="M248.5,174h0a1.5,1.5,0,0,1,1.5,1.5v51a1.5,1.5,0,0,1-1.5,1.5h0a1.5,1.5,0,0,1-1.5-1.5v-51A1.5,1.5,0,0,1,248.5,174Z"/><path class="cls-5" d="M285.5,148h0a1.5,1.5,0,0,1,1.5,1.5v77a1.5,1.5,0,0,1-1.5,1.5h0a1.5,1.5,0,0,1-1.5-1.5v-77A1.5,1.5,0,0,1,285.5,148Z"/><path class="cls-5" d="M322.5,113h0a1.5,1.5,0,0,1,1.5,1.5v112a1.5,1.5,0,0,1-1.5,1.5h0a1.5,1.5,0,0,1-1.5-1.5v-112A1.5,1.5,0,0,1,322.5,113Z"/><path class="cls-5" d="M359.5,169h0a1.5,1.5,0,0,1,1.5,1.5v56a1.5,1.5,0,0,1-1.5,1.5h0a1.5,1.5,0,0,1-1.5-1.5v-56A1.5,1.5,0,0,1,359.5,169Z"/><path class="cls-5" d="M396.5,134h0a1.5,1.5,0,0,1,1.5,1.5v91a1.5,1.5,0,0,1-1.5,1.5h0a1.5,1.5,0,0,1-1.5-1.5v-91A1.5,1.5,0,0,1,396.5,134Z"/><path class="cls-5" d="M433.5,156h0a1.5,1.5,0,0,1,1.5,1.5v69a1.5,1.5,0,0,1-1.5,1.5h0a1.5,1.5,0,0,1-1.5-1.5v-69A1.5,1.5,0,0,1,433.5,156Z"/><path class="cls-5" d="M470.5,125h0a1.5,1.5,0,0,1,1.5,1.5v100a1.5,1.5,0,0,1-1.5,1.5h0a1.5,1.5,0,0,1-1.5-1.5v-100A1.5,1.5,0,0,1,470.5,125Z"/></g></g></svg>