<svg width="71" height="71" viewBox="0 0 71 71" fill="none" xmlns="http://www.w3.org/2000/svg">
<path d="M50.0878 6.79998C53.9538 6.81152 57.6583 8.35179 60.392 11.0844C63.1258 13.817 64.6667 17.5199 64.6782 21.3844V50.55C64.6667 54.4144 63.1258 58.1173 60.392 60.8499C57.6583 63.5825 53.9538 65.1228 50.0878 65.1344H20.91C17.044 65.1228 13.3395 63.5825 10.6058 60.8499C7.87206 58.1173 6.33116 54.4144 6.31961 50.55V21.3844C6.33116 17.5199 7.87206 13.817 10.6058 11.0844C13.3395 8.35179 17.044 6.81152 20.91 6.79998H50.0878ZM50.0878 0.967163H20.91C9.67569 0.967163 0.484375 10.1547 0.484375 21.3844V50.55C0.484375 61.7797 9.67569 70.9672 20.91 70.9672H50.0878C61.3221 70.9672 70.5134 61.7797 70.5134 50.55V21.3844C70.5134 10.1547 61.3221 0.967163 50.0878 0.967163Z" fill="black"/>
<path d="M54.4656 21.3857C53.5999 21.3857 52.7537 21.1291 52.034 20.6484C51.3142 20.1676 50.7532 19.4844 50.4219 18.6849C50.0907 17.8855 50.004 17.0058 50.1729 16.1572C50.3418 15.3085 50.7586 14.5289 51.3707 13.9171C51.9828 13.3052 52.7627 12.8886 53.6117 12.7197C54.4607 12.5509 55.3408 12.6376 56.1405 12.9687C56.9403 13.2998 57.6239 13.8606 58.1048 14.5801C58.5857 15.2995 58.8424 16.1454 58.8424 17.0107C58.8436 17.5856 58.7313 18.155 58.5118 18.6864C58.2922 19.2177 57.9699 19.7005 57.5632 20.107C57.1566 20.5135 56.6736 20.8357 56.142 21.0552C55.6104 21.2746 55.0407 21.3869 54.4656 21.3857ZM35.4999 24.3013C37.8084 24.3013 40.0651 24.9856 41.9845 26.2676C43.904 27.5496 45.4 29.3718 46.2835 31.5037C47.1669 33.6356 47.398 35.9814 46.9477 38.2447C46.4973 40.5079 45.3856 42.5868 43.7533 44.2184C42.1209 45.8501 40.0412 46.9613 37.777 47.4115C35.5129 47.8617 33.166 47.6306 31.0332 46.7476C28.9004 45.8645 27.0775 44.3691 25.795 42.4504C24.5124 40.5318 23.8279 38.276 23.8279 35.9685C23.8312 32.8752 25.062 29.9095 27.2502 27.7222C29.4384 25.5349 32.4053 24.3046 35.4999 24.3013ZM35.4999 18.4685C32.0373 18.4685 28.6525 19.4949 25.7734 21.4178C22.8943 23.3407 20.6504 26.0738 19.3253 29.2715C18.0002 32.4692 17.6535 35.9879 18.329 39.3826C19.0046 42.7772 20.672 45.8954 23.1204 48.3429C25.5688 50.7903 28.6883 52.457 32.0844 53.1322C35.4805 53.8075 39.0006 53.4609 42.1997 52.1364C45.3987 50.8119 48.133 48.5688 50.0567 45.691C51.9804 42.8131 53.0072 39.4297 53.0072 35.9685C53.0072 31.3272 51.1627 26.876 47.8794 23.5941C44.5962 20.3122 40.1431 18.4685 35.4999 18.4685Z" fill="black"/>
</svg>
