<svg width="71" height="71" viewBox="0 0 71 71" fill="none" xmlns="http://www.w3.org/2000/svg">
<path fill-rule="evenodd" clip-rule="evenodd" d="M70.5 70.967H56.1172V46.4699C56.1172 39.7534 53.5651 36.0001 48.249 36.0001C42.4658 36.0001 39.4443 39.906 39.4443 46.4699V70.967H25.5833V24.3004H39.4443V30.5864C39.4443 30.5864 43.612 22.8746 53.515 22.8746C63.4134 22.8746 70.5 28.9192 70.5 41.4206V70.967ZM9.0472 18.1898C4.32585 18.1898 0.5 14.3339 0.5 9.5784C0.5 4.82291 4.32585 0.967041 9.0472 0.967041C13.7686 0.967041 17.5921 4.82291 17.5921 9.5784C17.5921 14.3339 13.7686 18.1898 9.0472 18.1898ZM1.88997 70.967H16.3434V24.3004H1.88997V70.967Z" fill="black"/>
</svg>
