<svg width="158" height="36" viewBox="0 0 158 36" fill="none" xmlns="http://www.w3.org/2000/svg">
<path fill-rule="evenodd" clip-rule="evenodd" d="M31.9938 6.64802C33.0791 7.93097 33.9732 9.36241 34.6488 10.8984C35.6328 13.1379 36.139 15.5561 36.1355 18C36.132 22.738 34.2395 27.2814 30.8727 30.6341C27.5059 33.9869 22.9396 35.8755 18.1747 35.886C15.8663 35.8847 13.5803 35.4364 11.4444 34.566C9.92087 33.9641 8.49071 33.1508 7.19641 32.1504C5.17927 30.6218 3.51057 28.6858 2.30011 26.4697C1.08967 24.2536 0.364915 21.8078 0.173569 19.2931C-0.0177757 16.7785 0.328622 14.252 1.18996 11.8801C2.0513 9.50813 3.40806 7.34446 5.17092 5.53147C6.93379 3.71848 9.0628 2.29728 11.4178 1.3614C13.7729 0.425534 16.3005 -0.00378755 18.8345 0.101689C21.3684 0.207169 23.8511 0.845059 26.1192 1.97338C28.3874 3.1017 30.3895 4.69486 31.9938 6.64802ZM24.1616 5.05081C22.2823 4.18111 20.2344 3.73059 18.1614 3.73081L18.1747 3.70441C15.7562 3.70262 13.3766 4.30921 11.2573 5.46774C9.13794 6.62626 7.34779 8.29907 6.05341 10.3305C4.75902 12.3619 4.00248 14.6859 3.85417 17.0862C3.70586 19.4865 4.17062 21.8851 5.20519 24.0588C5.8048 23.4324 6.17431 22.6232 6.2539 21.762C6.48899 20.1471 7.24297 18.6511 8.40332 17.4973C9.56366 16.3435 11.0681 15.5938 12.6922 15.36C13.6051 15.2777 14.4615 14.8848 15.1169 14.2475C15.7722 13.6103 16.1865 12.7677 16.2897 11.862C16.5248 10.2471 17.2787 8.75112 18.4391 7.59732C19.5994 6.44352 21.1039 5.69378 22.728 5.46001C23.2215 5.38524 23.7034 5.24772 24.1616 5.05081ZM7.34246 27.0977C7.28935 27.1447 7.23624 27.1916 7.18314 27.24C8.21205 28.4375 9.43189 29.4587 10.7939 30.2628C11.1501 29.719 11.3729 29.0995 11.4444 28.4544C11.6877 26.8363 12.4495 25.3393 13.6165 24.186C14.7836 23.0326 16.2937 22.2844 17.9225 22.0524C18.8367 21.9628 19.6916 21.5616 20.3424 20.9169C20.9932 20.2722 21.3998 19.4235 21.4934 18.5148C21.7244 16.8983 22.477 15.4 23.6381 14.2455C24.7992 13.0909 26.306 12.3425 27.9317 12.1128C28.8474 12.0267 29.7008 11.6141 30.3344 10.9512C30.3987 10.8962 30.4566 10.8342 30.507 10.7664C29.6857 9.37104 28.6255 8.12915 27.3742 7.09682C26.2752 8.12076 24.8837 8.78029 23.3917 8.98441C22.4756 9.04659 21.6129 9.43565 20.9624 10.08C20.2765 10.749 19.8649 11.6475 19.8075 12.6012C19.5724 14.2161 18.8184 15.7121 17.6581 16.8659C16.4977 18.0197 14.9933 18.7694 13.3692 19.0032C12.4559 19.0775 11.6013 19.4813 10.9665 20.1384C10.3067 20.7774 9.89729 21.629 9.81155 22.5408C9.60011 24.1629 8.84203 25.6658 7.66103 26.8044C7.55484 26.91 7.44865 27.0039 7.34246 27.0977ZM14.179 31.7808C15.4738 32.15 16.8144 32.3367 18.1614 32.3352V32.2692C20.3552 32.2607 22.5178 31.7527 24.4835 30.7841C26.4491 29.8154 28.1655 28.412 29.501 26.6813C30.8364 24.9507 31.7555 22.9389 32.1876 20.8002C32.6197 18.6615 32.5534 16.4529 31.9938 14.3436C30.986 15.0522 29.8194 15.5053 28.5954 15.6636C27.6836 15.7561 26.8318 16.1586 26.1836 16.803C25.5355 17.4475 25.1308 18.2945 25.0378 19.2012C24.802 20.818 24.0461 22.3155 22.8831 23.4695C21.7201 24.6235 20.2127 25.3721 18.5862 25.6032C17.6744 25.6957 16.8225 26.0982 16.1744 26.7426C15.5263 27.3871 15.1216 28.2341 15.0286 29.1408C14.9099 30.065 14.6219 30.9598 14.179 31.7808ZM49.7688 10.1725H45.7864V26.1841H49.7688V10.1725ZM57.5612 13.8157C53.7911 13.8157 51.3485 16.1785 51.3485 20.1385C51.3485 24.1645 53.738 26.4744 57.5612 26.4744C61.3843 26.4744 63.7738 24.0985 63.7738 20.1385C63.7738 16.1785 61.3312 13.8157 57.5612 13.8157ZM57.5612 16.6801C58.9152 16.6801 59.7781 17.9604 59.7781 20.1385V20.1517C59.7781 22.3561 58.9285 23.5705 57.5612 23.5705C56.1938 23.5705 55.3575 22.2769 55.3575 20.1385C55.3575 18.0001 56.2071 16.6801 57.5612 16.6801ZM69.097 26.9629H65.2738V26.9761C65.4995 29.1673 67.6898 30.7381 71.2077 30.7381C74.991 30.7381 77.553 28.9429 77.553 26.052V14.0401H73.5706V16.2445C73.2708 15.532 72.7592 14.9277 72.1044 14.5125C71.4496 14.0973 70.6828 13.891 69.9067 13.9213C66.8535 13.9213 65.0216 16.3105 65.0216 20.0989C65.0216 23.8873 66.9465 26.0917 69.8536 26.0917C70.6061 26.1323 71.3536 25.9478 71.9995 25.5619C72.6455 25.176 73.1604 24.6065 73.4777 23.9269H73.5573V26.1445C73.5573 27.3325 72.7608 28.1508 71.2475 28.1508C70.8082 28.2096 70.3615 28.1257 69.974 27.9116C69.5865 27.6976 69.2789 27.3648 69.097 26.9629ZM71.274 16.9837C72.6812 16.9837 73.5706 18.1981 73.5706 20.1253V20.1385C73.5706 22.092 72.6945 23.1613 71.274 23.1613C69.8536 23.1613 69.0041 22.0657 69.0041 20.1253C69.0041 18.1849 69.8669 16.9837 71.274 16.9837ZM85.2657 13.8025C81.4957 13.8025 79.0531 16.1653 79.0531 20.1253V20.1385C79.0531 24.1645 81.4293 26.4613 85.2657 26.4613C89.1021 26.4613 91.4916 24.0853 91.4916 20.1253C91.4916 16.1653 89.0358 13.8025 85.2657 13.8025ZM85.2657 16.6669C86.6198 16.6669 87.4826 17.9473 87.4826 20.1253V20.1517C87.4826 22.3561 86.6729 23.5836 85.3188 23.5836C83.9648 23.5836 83.1285 22.3033 83.1285 20.1517C83.1285 18.0001 83.9117 16.6669 85.2657 16.6669ZM93.3187 10.0307C93.1037 10.3687 92.9945 10.7626 93.0049 11.1625V11.1889C93.0025 11.4545 93.0553 11.7179 93.1601 11.9623C93.2649 12.2067 93.4193 12.427 93.6138 12.6092C93.8083 12.7914 94.0386 12.9317 94.2902 13.0212C94.5417 13.1107 94.8092 13.1475 95.0758 13.1293C95.478 13.1213 95.8687 12.9947 96.1984 12.7657C96.5281 12.5367 96.7821 12.2154 96.928 11.8427C97.0739 11.47 97.1053 11.0626 97.018 10.6722C96.9308 10.2817 96.729 9.92584 96.4381 9.64959C96.1473 9.37334 95.7805 9.18919 95.3842 9.12048C94.988 9.05177 94.5802 9.1016 94.2124 9.26364C93.8447 9.42568 93.5336 9.69265 93.3187 10.0307ZM96.9874 14.0665H93.0049V26.1841H96.9874V14.0665ZM106.651 26.3425C109.678 26.3425 111.444 24.0853 111.444 20.1253L111.497 20.1517C111.497 16.1917 109.678 13.9213 106.625 13.8685C105.843 13.8337 105.069 14.0394 104.409 14.4574C103.749 14.8755 103.234 15.4856 102.935 16.2048H102.855V14.0401H98.8724V30.0649H102.855V24.0985H102.935C103.248 24.806 103.773 25.4007 104.438 25.802C105.103 26.2033 105.875 26.392 106.651 26.3425ZM105.178 16.9705C106.572 16.9705 107.461 18.1981 107.461 20.1253V20.1517C107.461 22.0657 106.572 23.2669 105.178 23.2669C103.784 23.2669 102.868 22.0393 102.881 20.1253C102.895 18.2113 103.784 16.9705 105.178 16.9705ZM123.683 17.8417C123.59 15.3469 121.586 13.7893 118.28 13.7893V13.8157C114.988 13.8157 112.851 15.3601 112.824 17.7361C112.824 19.5841 114.072 20.8381 116.448 21.3265L118.745 21.8149C119.701 22.0129 120.072 22.1449 120.072 22.7785C120.072 23.412 119.541 23.7949 118.373 23.7949C117.205 23.7949 116.488 23.2669 116.369 22.3693H112.532C112.705 24.8377 114.922 26.4481 118.307 26.4481C121.692 26.4481 123.988 24.8377 123.988 22.3297C123.988 20.4949 122.953 19.5181 120.524 19.0033L117.975 18.4884C117.085 18.3037 116.647 18.1057 116.647 17.4853C116.647 16.8649 117.139 16.4425 118.24 16.4425C119.342 16.4425 120.059 16.9837 120.059 17.8417H123.683ZM133.44 26.1577H137.276L137.33 14.0401H133.347V20.8777C133.385 21.163 133.361 21.4532 133.277 21.7286C133.193 22.0041 133.05 22.2584 132.859 22.4747C132.668 22.6909 132.433 22.8641 132.169 22.9825C131.905 23.1009 131.619 23.1618 131.329 23.1613C130.095 23.1613 129.351 22.3957 129.351 20.9569V14.0401H125.369V21.8677C125.319 22.4682 125.398 23.0725 125.603 23.6397C125.808 24.2069 126.132 24.7238 126.555 25.1555C126.978 25.5872 127.489 25.9237 128.054 26.1421C128.619 26.3605 129.224 26.4559 129.829 26.4217C130.619 26.4652 131.4 26.2389 132.042 25.7802C132.684 25.3216 133.15 24.6583 133.36 23.9005H133.44V26.1577ZM143.051 14.0401H139.201L139.135 26.1841H143.117V19.0429C143.087 18.7946 143.111 18.5428 143.186 18.3041C143.261 18.0654 143.386 17.8453 143.553 17.6582C143.719 17.4711 143.924 17.3213 144.154 17.2186C144.383 17.116 144.632 17.0629 144.883 17.0629C145.972 17.0629 146.569 17.7229 146.569 18.9373V26.1841H150.352V19.0165C150.32 18.7713 150.341 18.5221 150.414 18.2856C150.487 18.0492 150.609 17.831 150.774 17.6459C150.939 17.4607 151.142 17.3129 151.369 17.2123C151.596 17.1117 151.843 17.0608 152.091 17.0629C153.206 17.0629 153.804 17.6701 153.804 18.9901V26.1841H157.786V17.9341C157.826 17.3966 157.751 16.857 157.567 16.3502C157.383 15.8434 157.094 15.3807 156.718 14.9923C156.342 14.6039 155.889 14.2984 155.387 14.0957C154.885 13.893 154.345 13.7976 153.804 13.8157C152.974 13.7802 152.155 14.0203 151.477 14.4983C150.8 14.9763 150.301 15.6649 150.06 16.4557H149.981C149.853 15.6732 149.434 14.9672 148.807 14.478C148.179 13.9889 147.39 13.7524 146.595 13.8157C145.814 13.8013 145.051 14.0449 144.424 14.5082C143.797 14.9716 143.342 15.6287 143.131 16.3765H143.051V14.0401Z" fill="#394149"/>
</svg>
