<svg width="172" height="40" viewBox="0 0 172 40" fill="none" xmlns="http://www.w3.org/2000/svg">
<path fill-rule="evenodd" clip-rule="evenodd" d="M18.2929 0.728027V6.33803C14.6799 6.33803 11.2148 7.77741 8.66 10.3395C6.10519 12.9017 4.66991 16.3766 4.66991 20C4.66991 23.6234 6.10519 27.0984 8.66 29.6605C11.2148 32.2226 14.6799 33.662 18.2929 33.662V39.272H0.655396V0.728027H18.2929ZM45.7628 9.77002H41.8141V28.844H45.7628V9.77002ZM49.1414 18.4558C48.3803 19.5963 47.974 20.9377 47.974 22.31C47.9617 23.2202 48.1308 24.1236 48.4712 24.9673C48.8116 25.8111 49.3166 26.5782 49.9566 27.2237C50.5965 27.8691 51.3585 28.38 52.1979 28.7262C53.0373 29.0724 53.9372 29.2471 54.8448 29.24C56.2131 29.2479 57.553 28.8481 58.6946 28.0914C59.8361 27.3347 60.728 26.2551 61.2571 24.9896C61.7861 23.724 61.9286 22.3294 61.6665 20.9825C61.4043 19.6356 60.7493 18.3971 59.7845 17.4239C58.8197 16.4508 57.5885 15.7868 56.2469 15.5162C54.9054 15.2456 53.514 15.3805 52.249 15.9038C50.984 16.4272 49.9025 17.3154 49.1414 18.4558ZM57.3284 20.6601C57.6674 21.1445 57.8566 21.7184 57.8721 22.31H57.8458C57.8676 22.7124 57.8064 23.1151 57.666 23.4927C57.5256 23.8703 57.309 24.2148 57.0298 24.5047C56.7507 24.7946 56.4148 25.0237 56.0434 25.1775C55.672 25.3313 55.2729 25.4067 54.8711 25.3988C54.2809 25.3986 53.704 25.2239 53.2123 24.8966C52.7206 24.5693 52.3361 24.1038 52.1069 23.5585C51.8776 23.0132 51.8137 22.4121 51.9232 21.8306C52.0328 21.2491 52.3109 20.7128 52.7227 20.2889C53.1345 19.865 53.6618 19.5723 54.2387 19.4474C54.8155 19.3225 55.4163 19.3709 55.9659 19.5866C56.5154 19.8023 56.9893 20.1757 57.3284 20.6601ZM77.3391 15.7759V28.1971C77.3391 32.5795 73.9169 34.4407 70.4552 34.4407C69.2342 34.5413 68.0095 34.298 66.9189 33.7383C65.8282 33.1786 64.9151 32.3247 64.2821 31.2728L67.6122 29.3456C67.882 29.8912 68.3113 30.3414 68.8427 30.6361C69.3742 30.9309 69.9826 31.0563 70.5869 30.9956C70.9718 31.0431 71.3625 31.0048 71.731 30.8833C72.0994 30.7618 72.4366 30.5602 72.7183 30.2928C73 30.0254 73.2193 29.6989 73.3605 29.3366C73.5017 28.9743 73.5614 28.5852 73.5352 28.1971V26.9959C73.0757 27.5547 72.4927 27.9983 71.8324 28.2916C71.1721 28.5849 70.4527 28.7198 69.7313 28.6855C67.9859 28.6855 66.3119 27.9902 65.0777 26.7525C63.8435 25.5147 63.1501 23.836 63.1501 22.0855C63.1501 20.3351 63.8435 18.6564 65.0777 17.4186C66.3119 16.1809 67.9859 15.4855 69.7313 15.4855C70.4527 15.4513 71.1721 15.5862 71.8324 15.8795C72.4927 16.1728 73.0757 16.6164 73.5352 17.1751V15.8551L77.3391 15.7759ZM73.5352 22.0459C73.5615 21.4144 73.3988 20.7894 73.068 20.2514C72.7372 19.7134 72.2536 19.2868 71.6791 19.0267C71.1047 18.7666 70.4658 18.6847 69.8446 18.7916C69.2235 18.8985 68.6484 19.1893 68.1933 19.6267C67.7383 20.064 67.4241 20.6279 67.2911 21.2457C67.1582 21.8636 67.2126 22.5072 67.4473 23.0938C67.682 23.6804 68.0864 24.1832 68.6083 24.5375C69.1303 24.8918 69.746 25.0814 70.3763 25.0819C70.7875 25.1117 71.2004 25.0545 71.5883 24.9143C71.9762 24.774 72.3304 24.5537 72.6281 24.2676C72.9258 23.9815 73.1604 23.6359 73.3166 23.2532C73.4729 22.8706 73.5473 22.4593 73.5352 22.0459ZM80.7292 18.4585C79.9693 19.5984 79.5637 20.9388 79.5637 22.31C79.5531 23.2219 79.7242 24.1267 80.0669 24.9714C80.4096 25.8161 80.9171 26.5837 81.5595 27.2291C82.2018 27.8746 82.9663 28.3849 83.8079 28.7302C84.6496 29.0755 85.5515 29.2488 86.4608 29.24C87.828 29.2426 89.1653 28.8384 90.3035 28.0785C91.4416 27.3186 92.3293 26.2372 92.8543 24.9711C93.3794 23.7051 93.5181 22.3113 93.253 20.9661C92.9878 19.621 92.3307 18.3849 91.3648 17.4144C90.399 16.4439 89.1677 15.7826 87.8269 15.5141C86.4861 15.2457 85.096 15.3821 83.8325 15.9063C82.5691 16.4304 81.4891 17.3186 80.7292 18.4585ZM88.9171 20.6587C89.2568 21.1434 89.4462 21.7178 89.4618 22.31H89.4486C89.4704 22.7124 89.4092 23.115 89.2688 23.4927C89.1284 23.8703 88.9119 24.2148 88.6327 24.5047C88.3535 24.7946 88.0177 25.0236 87.6462 25.1775C87.2748 25.3313 86.8757 25.4066 86.4739 25.3988C85.8832 25.4012 85.305 25.2287 84.8116 24.903C84.3182 24.5772 83.9317 24.1127 83.7004 23.5676C83.4691 23.0225 83.4034 22.4211 83.5114 21.8387C83.6195 21.2563 83.8965 20.7189 84.3078 20.2937C84.7191 19.8685 85.2464 19.5745 85.8235 19.4485C86.4007 19.3225 87.0021 19.3701 87.5524 19.5854C88.1028 19.8007 88.5775 20.1741 88.9171 20.6587ZM95.1874 12.2781C95.1874 11.8134 95.3248 11.3591 95.5822 10.9727C95.8397 10.5863 96.2056 10.2852 96.6337 10.1073C97.0618 9.92949 97.5329 9.88295 97.9873 9.97361C98.4418 10.0643 98.8593 10.2881 99.1869 10.6166C99.5146 10.9452 99.7377 11.3639 99.8281 11.8197C99.9185 12.2755 99.8721 12.7479 99.6948 13.1772C99.5175 13.6066 99.2172 13.9735 98.8319 14.2317C98.4466 14.4899 97.9936 14.6277 97.5303 14.6277C96.911 14.6208 96.3191 14.3711 95.8811 13.9319C95.4433 13.4927 95.1942 12.8991 95.1874 12.2781ZM95.5691 15.7761H99.5178V28.8441H95.5691V15.7761ZM116.043 24.8678C116.335 24.0484 116.462 23.1791 116.418 22.31C116.457 21.4441 116.326 20.5791 116.031 19.7642C115.737 18.9493 115.285 18.2006 114.702 17.5608C114.119 16.9209 113.416 16.4025 112.633 16.0351C111.85 15.6677 111.003 15.4586 110.14 15.4196C109.405 15.3679 108.668 15.4836 107.984 15.7579C107.301 16.0322 106.687 16.458 106.191 17.0036V15.776H102.242V34.0976H106.191V27.6428C106.687 28.19 107.299 28.6178 107.983 28.8944C108.667 29.1709 109.404 29.2891 110.14 29.24C111.007 29.2011 111.857 28.9907 112.643 28.6208C113.428 28.2509 114.133 27.7289 114.716 27.0848C115.3 26.4408 115.751 25.6873 116.043 24.8678ZM111.907 20.6001C112.258 21.1021 112.454 21.6969 112.469 22.31C112.499 22.7294 112.441 23.1503 112.297 23.5454C112.154 23.9404 111.929 24.3005 111.636 24.6021C111.344 24.9038 110.992 25.1401 110.603 25.2956C110.213 25.4511 109.795 25.5222 109.376 25.5044C108.765 25.5068 108.166 25.3281 107.655 24.9908C107.145 24.6535 106.745 24.1724 106.505 23.6081C106.266 23.0437 106.198 22.421 106.31 21.8181C106.423 21.2153 106.71 20.659 107.136 20.219C107.562 19.779 108.108 19.475 108.705 19.3449C109.303 19.2148 109.926 19.2645 110.495 19.4878C111.065 19.7111 111.556 20.098 111.907 20.6001ZM128.435 24.9236C128.435 27.9332 125.803 29.2136 123.013 29.2136C121.874 29.3163 120.732 29.0744 119.732 28.519C118.733 27.9637 117.922 27.1205 117.405 26.0984L120.801 24.1712C120.936 24.6422 121.228 25.0526 121.628 25.3337C122.028 25.6148 122.512 25.7496 122.999 25.7156C123.934 25.7156 124.408 25.4252 124.408 24.8972C124.408 24.3785 123.575 24.1463 122.509 23.8493C120.619 23.3224 117.998 22.5918 117.998 19.6964C117.998 16.8452 120.393 15.4196 123.105 15.4196C124.135 15.3733 125.159 15.6078 126.068 16.0982C126.976 16.5886 127.735 17.3165 128.264 18.2048L124.868 20C124.718 19.6594 124.473 19.3697 124.163 19.1659C123.852 18.9622 123.489 18.853 123.118 18.8516C122.433 18.8516 122.025 19.1156 122.025 19.5776C122.025 20.1166 122.848 20.3355 123.903 20.6165C125.795 21.12 128.435 21.8229 128.435 24.9236ZM138.794 28.844H142.743V15.776H138.847V22.97C138.847 24.7652 137.846 25.61 136.425 25.61C136.113 25.6287 135.801 25.5794 135.51 25.4653C135.219 25.3512 134.956 25.1751 134.739 24.9492C134.523 24.7233 134.358 24.4529 134.256 24.1568C134.154 23.8606 134.117 23.5458 134.148 23.234V15.776H130.199V23.828C130.199 27.3524 132.45 29.24 135.082 29.24C135.785 29.28 136.486 29.1539 137.131 28.8718C137.776 28.5898 138.346 28.1598 138.794 27.6164V28.844ZM165.119 20.8184V28.844H161.17V21.1616C161.17 19.8416 160.552 19.0232 159.301 19.0232C158.051 19.0232 157.261 19.934 157.261 21.4784V28.844H153.312V21.1616C153.312 19.8416 152.694 19.0232 151.443 19.0232C150.193 19.0232 149.403 19.934 149.403 21.4784V28.844H145.454V15.776H149.403V16.9772C149.812 16.4465 150.346 16.0262 150.957 15.7543C151.568 15.4823 152.238 15.3673 152.904 15.4196C153.572 15.3846 154.237 15.5245 154.835 15.8253C155.433 16.1261 155.942 16.5777 156.313 17.1356C156.747 16.5527 157.321 16.0896 157.982 15.7895C158.642 15.4894 159.368 15.3621 160.091 15.4196C163.171 15.4196 165.119 17.558 165.119 20.8184ZM18.293 6.33801V33.662C21.906 33.662 25.3711 32.2226 27.9259 29.6605C30.4807 27.0984 31.916 23.6234 31.916 20C31.916 16.3766 30.4807 12.9016 27.9259 10.3395C25.3711 7.7774 21.906 6.33801 18.293 6.33801ZM171.331 12.7928C171.331 14.3966 170.035 15.6968 168.436 15.6968C166.836 15.6968 165.54 14.3966 165.54 12.7928C165.54 11.189 166.836 9.88879 168.436 9.88879C170.035 9.88879 171.331 11.189 171.331 12.7928Z" fill="#394149"/>
</svg>
