<svg width="170" height="40" viewBox="0 0 170 40" fill="none" xmlns="http://www.w3.org/2000/svg">
<path fill-rule="evenodd" clip-rule="evenodd" d="M37.935 6.18328C39.4263 8.35197 40.2241 10.918 40.224 13.5452C40.2227 15.3767 39.8331 17.1875 39.0806 18.8592C38.328 20.5309 37.2295 22.0261 35.8566 23.2472V39.4964H0.87738V4.72757H17.4444C19.2306 2.79173 21.5632 1.43747 24.1366 0.842156C26.7099 0.246846 29.4041 0.438248 31.8662 1.3913C34.3284 2.34435 36.4436 4.0146 37.935 6.18328ZM32.4218 17.0835C33.1232 16.0355 33.4963 14.8041 33.4937 13.5452C33.4901 11.86 32.8145 10.2451 31.6149 9.0548C30.4153 7.86447 28.7899 7.19596 27.0952 7.19597C25.8291 7.19597 24.5915 7.56945 23.539 8.26915C22.4865 8.96884 21.6664 9.9633 21.1825 11.1266C20.6986 12.29 20.5727 13.5699 20.8206 14.8045C21.0686 16.039 21.6793 17.1727 22.5755 18.0619C23.4717 18.9512 24.613 19.5561 25.8551 19.8001C27.0971 20.0441 28.384 19.9162 29.553 19.4327C30.7219 18.9491 31.7203 18.1315 32.4218 17.0835ZM7.60772 32.804H29.1262V26.4284C28.4549 26.539 27.7757 26.5964 27.0952 26.6C23.6143 26.5965 20.277 25.2199 17.8156 22.7724C15.3542 20.325 13.9699 17.0064 13.9664 13.5452C13.9722 12.8324 14.0388 12.1215 14.1655 11.42H7.60772V32.804ZM52.9147 12.4232H48.6535V29.5832H52.9147V12.4232ZM61.2513 16.3304C57.2689 16.3304 54.6139 18.878 54.6139 23.1284C54.6139 27.4712 57.1759 29.9528 61.2513 29.9528C65.3267 29.9528 67.8887 27.3788 67.8887 23.1284C67.8887 18.878 65.2338 16.3304 61.2513 16.3304ZM61.2911 19.4192C62.7514 19.4192 63.6673 20.792 63.6673 23.1284L63.6939 23.1416C63.6939 25.5176 62.7514 26.8244 61.2911 26.8244C59.8309 26.8244 58.9282 25.5176 58.9282 23.1284C58.9282 20.7392 59.8309 19.4192 61.2911 19.4192ZM73.7031 30.4676H69.5879L69.6145 30.4808C69.8534 32.8436 72.2163 34.52 75.9067 34.5332C79.9688 34.5332 82.73 32.5928 82.73 29.4908V16.634H78.5086V18.763C78.1763 18.102 77.6676 17.5422 77.0357 17.1463C76.3224 16.6995 75.4874 16.4836 74.6456 16.5284C71.3136 16.5284 69.3357 19.0628 69.3357 23.1284C69.3357 27.194 71.4066 29.5568 74.5262 29.5568C75.3469 29.6166 76.1666 29.428 76.8775 29.0156C77.5794 28.6085 78.1427 28.002 78.4953 27.2745V29.6228C78.4953 30.9164 77.6457 31.7876 76.0129 31.7876C75.5358 31.8484 75.0518 31.7524 74.6347 31.514C74.2176 31.2757 73.8905 30.9082 73.7031 30.4676ZM76.0395 19.7492C77.5528 19.7492 78.5086 21.056 78.5086 23.1284C78.5086 25.28 77.5661 26.402 76.0395 26.402C74.5129 26.402 73.5969 25.1876 73.5969 23.1284C73.5969 21.0692 74.5262 19.7492 76.0395 19.7492ZM91.0533 16.3304C87.0709 16.3304 84.4159 18.878 84.4159 23.1284H84.4425C84.4425 27.4712 86.9912 29.9528 91.0533 29.9528C95.1154 29.9528 97.6907 27.3788 97.6907 23.1284C97.6907 18.878 95.0358 16.3304 91.0533 16.3304ZM91.0931 19.4192C92.5401 19.4192 93.4693 20.792 93.4693 23.1284L93.4959 23.1416C93.4959 25.5176 92.5534 26.8244 91.0931 26.8244C89.6329 26.8244 88.7302 25.5176 88.7302 23.1284C88.7302 20.7392 89.6462 19.4192 91.0931 19.4192ZM99.7373 12.2788C99.5097 12.6467 99.3979 13.074 99.4165 13.5056L99.443 13.5188C99.4464 13.795 99.505 14.0677 99.6153 14.3212C99.7255 14.5747 99.8854 14.8038 100.085 14.9954C100.285 15.187 100.522 15.3371 100.781 15.4371C101.04 15.5371 101.316 15.585 101.594 15.578C102.028 15.5776 102.452 15.448 102.812 15.2058C103.172 14.9636 103.451 14.6199 103.612 14.2189C103.774 13.8179 103.811 13.378 103.719 12.9557C103.628 12.5335 103.411 12.1482 103.097 11.8495C102.783 11.5507 102.387 11.3522 101.958 11.2794C101.53 11.2066 101.09 11.2628 100.694 11.4409C100.298 11.6191 99.965 11.9109 99.7373 12.2788ZM103.731 16.6208H99.4165L99.4828 29.636H103.731V16.6208ZM114.085 29.8208C117.337 29.8208 119.249 27.3656 119.249 23.1284L119.329 23.1416C119.329 18.8912 117.404 16.4492 114.059 16.4756C113.216 16.4357 112.382 16.6552 111.669 17.104C110.956 17.5528 110.4 18.2091 110.076 18.9836H109.997V16.6604H105.762V33.8204H110.023V27.4052H110.103C110.438 28.1648 111 28.8037 111.712 29.2357C112.424 29.6676 113.253 29.8719 114.085 29.8208ZM112.439 19.736C113.939 19.736 114.908 21.0692 114.908 23.1284L114.988 23.1416C114.988 25.28 113.939 26.5076 112.439 26.5076C110.939 26.5076 109.97 25.2008 109.983 23.1284C109.997 21.056 110.939 19.736 112.439 19.736ZM132.338 20.6864C132.311 17.9936 130.095 16.3172 126.524 16.3172L126.603 16.3304C123.006 16.3304 120.776 17.9804 120.696 20.5676C120.696 22.5608 122.037 23.894 124.599 24.4352L127.068 24.95C128.09 25.1612 128.488 25.28 128.488 25.9796C128.488 26.6792 127.904 27.0752 126.656 27.0752C125.409 27.0752 124.639 26.5076 124.519 25.544H120.391C120.563 28.1972 122.939 29.9396 126.59 29.9396C130.241 29.9396 132.696 28.1444 132.696 25.5044C132.696 23.5376 131.634 22.4816 128.98 21.9272L126.245 21.3728C125.263 21.1748 124.771 20.9636 124.771 20.2904C124.771 19.6172 125.329 19.1684 126.497 19.1684C127.665 19.1684 128.449 19.7492 128.449 20.6864H132.338ZM142.838 29.6228H146.967L147.047 16.634H142.799V23.96C142.844 24.2664 142.823 24.5789 142.737 24.8765C142.651 25.1741 142.501 25.4498 142.299 25.685C142.096 25.9202 141.845 26.1095 141.563 26.24C141.28 26.3705 140.973 26.4393 140.661 26.4416C139.334 26.4416 138.524 25.61 138.524 24.0788V16.634H134.263V24.9896C134.21 25.6258 134.293 26.2659 134.507 26.8679C134.72 27.4698 135.06 28.0201 135.502 28.4826C135.945 28.945 136.48 29.3092 137.074 29.5512C137.669 29.7932 138.307 29.9076 138.949 29.8868C139.799 29.9336 140.639 29.6911 141.332 29.1992C142.024 28.7072 142.528 27.9953 142.759 27.1808H142.838V29.6228ZM153.166 16.6208H149.025L149.051 29.636H153.312V21.9536C153.278 21.6865 153.302 21.4153 153.382 21.1581C153.462 20.9009 153.596 20.6637 153.776 20.4624C153.956 20.2612 154.177 20.1005 154.424 19.9911C154.672 19.8817 154.94 19.8263 155.211 19.8284C156.379 19.8284 157.029 20.528 157.029 21.848V29.636H161.091V21.9272C161.055 21.6632 161.076 21.3946 161.154 21.1396C161.232 20.8846 161.364 20.6494 161.542 20.45C161.72 20.2507 161.939 20.0919 162.184 19.9846C162.429 19.8773 162.695 19.824 162.963 19.8284C164.171 19.8284 164.795 20.5676 164.795 21.8876V29.636H169.083V20.8052C169.126 20.227 169.046 19.6461 168.848 19.1007C168.65 18.5552 168.339 18.0575 167.934 17.6401C167.529 17.2226 167.04 16.8949 166.5 16.6783C165.959 16.4617 165.378 16.3612 164.795 16.3832C163.918 16.3424 163.052 16.5907 162.332 17.0896C161.612 17.5885 161.078 18.3101 160.813 19.142H160.627C160.475 18.3145 160.017 17.5731 159.345 17.0629C158.672 16.5527 157.832 16.3103 156.989 16.3832C156.15 16.3662 155.328 16.6265 154.653 17.1233C153.978 17.6201 153.488 18.3254 153.259 19.1288H153.166V16.6208Z" fill="#394149"/>
</svg>
