<svg width="158" height="32" viewBox="0 0 158 32" fill="none" xmlns="http://www.w3.org/2000/svg">
<path fill-rule="evenodd" clip-rule="evenodd" d="M7.87862 4.23813C4.68273 6.72224 2.41451 10.1981 1.43514 14.1124H3.02812C5.71537 14.073 8.34752 14.8716 10.555 16.396C10.6824 16.4877 10.8154 16.5715 10.9532 16.6468H11.139C11.2769 16.5715 11.4099 16.4877 11.5373 16.396C13.7643 14.9069 16.3871 14.1116 19.0708 14.1116C21.7544 14.1116 24.3772 14.9069 26.6042 16.396C26.7316 16.4877 26.8646 16.5715 27.0025 16.6468H27.1883C27.3262 16.5715 27.4592 16.4877 27.5866 16.396C29.794 14.8716 32.4261 14.073 35.1134 14.1124H36.7064C35.727 10.1981 33.4588 6.72224 30.2629 4.23813C27.067 1.75403 23.1272 0.404541 19.0708 0.404541C15.0143 0.404541 11.0745 1.75403 7.87862 4.23813ZM35.1134 21.4516C34.0773 21.4243 33.0638 21.7555 32.246 22.3888C30.7326 23.4364 28.9328 23.9979 27.0888 23.9979C25.2447 23.9979 23.4449 23.4364 21.9315 22.3888C21.1148 21.7535 20.1006 21.422 19.0641 21.4516C18.0283 21.4264 17.0155 21.7575 16.1968 22.3888C14.6861 23.437 12.8883 23.9991 11.0461 23.9991C9.20396 23.9991 7.40617 23.437 5.89548 22.3888C5.07774 21.7555 4.06423 21.4243 3.02812 21.4516H0.890869V17.2144H3.09449C4.94208 17.1781 6.75091 17.7436 8.24513 18.8248C9.07573 19.4337 10.0806 19.7622 11.1125 19.7622C12.1444 19.7622 13.1493 19.4337 13.9799 18.8248C15.4933 17.7772 17.2931 17.2156 19.1371 17.2156C20.9812 17.2156 22.781 17.7772 24.2944 18.8248C25.125 19.4337 26.1298 19.7622 27.1618 19.7622C28.1937 19.7622 29.1985 19.4337 30.0291 18.8248C31.5051 17.7573 33.2884 17.1924 35.1134 17.2144H37.2506V21.4516H35.1134ZM35.1134 29.0284C34.0773 29.0011 33.0638 29.3323 32.246 29.9656C30.7326 31.0132 28.9328 31.5748 27.0888 31.5748C25.2447 31.5748 23.4449 31.0132 21.9315 29.9656C21.1148 29.3303 20.1006 28.9988 19.0641 29.0284C18.0283 29.0032 17.0155 29.3343 16.1968 29.9656C14.6861 31.0139 12.8883 31.5759 11.0461 31.5759C9.20396 31.5759 7.40617 31.0139 5.89548 29.9656C5.07774 29.3323 4.06423 29.0011 3.02812 29.0284H0.890869V24.7912H3.09449C4.94208 24.7549 6.75091 25.3204 8.24513 26.4016C9.07573 27.0105 10.0806 27.339 11.1125 27.339C12.1444 27.339 13.1493 27.0105 13.9799 26.4016C15.4933 25.354 17.2931 24.7924 19.1371 24.7924C20.9812 24.7924 22.781 25.354 24.2944 26.4016C25.125 27.0105 26.1298 27.339 27.1618 27.339C28.1937 27.339 29.1985 27.0105 30.0291 26.4016C31.5051 25.3341 33.2884 24.7692 35.1134 24.7912H37.2506V29.0284H35.1134ZM48.8926 25.1211C49.539 25.5741 50.32 25.7973 51.1095 25.7547C51.6239 25.749 52.1344 25.6644 52.6229 25.5039C52.6721 25.5011 52.7201 25.4878 52.7638 25.4649C52.8074 25.4421 52.8456 25.4102 52.8758 25.3714C52.906 25.3326 52.9275 25.2879 52.9388 25.2402C52.9501 25.1924 52.951 25.1429 52.9415 25.0947L52.7423 23.4447C52.7291 23.2071 52.583 23.1279 52.3175 23.1279C52.1274 23.1798 51.9304 23.202 51.7335 23.1939C51.2688 23.1939 51.0432 22.9431 51.0432 22.4415V11.1555C51.0432 10.9047 50.9237 10.7727 50.6715 10.7727H48.4413C48.3892 10.7663 48.3363 10.7718 48.2867 10.7888C48.237 10.8057 48.1919 10.8337 48.1548 10.8707C48.1177 10.9076 48.0895 10.9524 48.0725 11.0018C48.0554 11.0512 48.0499 11.1037 48.0563 11.1555V23.3919C48.0441 23.726 48.1138 24.058 48.2596 24.3593C48.4053 24.6606 48.6226 24.9221 48.8926 25.1211ZM59.6718 25.7666C61.1255 25.7666 62.5337 25.263 63.6543 24.3424V24.3292C64.6165 23.3313 65.1538 22.0024 65.1538 20.62C65.1538 19.2375 64.6165 17.9086 63.6543 16.9108C62.5315 15.9948 61.1241 15.4943 59.6718 15.4943C58.2195 15.4943 56.8122 15.9948 55.6894 16.9108C54.7044 17.8995 54.1519 19.2349 54.1519 20.6266C54.1519 22.0182 54.7044 23.3536 55.6894 24.3424C56.81 25.263 58.2182 25.7666 59.6718 25.7666ZM59.6851 23.3278C58.9834 23.3278 58.3068 23.0684 57.7868 22.6C57.3161 22.0618 57.0569 21.3727 57.0569 20.6596C57.0569 19.9464 57.3161 19.2573 57.7868 18.7192C58.3068 18.2507 58.9834 17.9913 59.6851 17.9913C60.3868 17.9913 61.0634 18.2507 61.5834 18.7192C62.0541 19.2573 62.3133 19.9464 62.3133 20.6596C62.3133 21.3727 62.0541 22.0618 61.5834 22.6C61.0634 23.0684 60.3868 23.3278 59.6851 23.3278ZM77.4336 15.8284C77.6858 15.8284 77.8053 15.9604 77.8053 16.2112V25.6756C77.8285 26.3143 77.7083 26.9502 77.4534 27.537C77.1985 28.1238 76.8154 28.6468 76.3318 29.068C75.2584 29.978 73.8781 30.4497 72.4688 30.388C71.196 30.4324 69.9401 30.0868 68.8714 29.398C68.415 29.1 68.0251 28.7118 67.7259 28.2577C67.4268 27.8035 67.2247 27.293 67.1323 26.758C67.1323 26.494 67.1324 26.3752 67.4908 26.3752H69.7209C69.8156 26.3784 69.9074 26.4087 69.9851 26.4626C70.0628 26.5165 70.1232 26.5915 70.159 26.6788C70.3036 27.0797 70.592 27.4134 70.9688 27.616C71.4279 27.8515 71.939 27.9695 72.4556 27.9592C72.7673 27.9761 73.0792 27.9312 73.3732 27.8269C73.6673 27.7227 73.9374 27.5612 74.168 27.352C74.3786 27.133 74.5425 26.874 74.6497 26.5904C74.757 26.3069 74.8053 26.0046 74.7919 25.702V24.8704C73.9934 25.4544 73.0216 25.7563 72.0308 25.7284C71.3373 25.7534 70.6459 25.6389 69.998 25.3917C69.3502 25.1444 68.7592 24.7695 68.2607 24.2896C67.3037 23.305 66.7687 21.9893 66.7687 20.62C66.7687 19.2507 67.3037 17.9349 68.2607 16.9504C68.7617 16.4746 69.3533 16.1034 70.0008 15.8585C70.6483 15.6137 71.3385 15.5002 72.0308 15.5248C73.0503 15.498 74.0482 15.8195 74.8583 16.4356V16.2244C74.8522 16.1738 74.8575 16.1225 74.8738 16.0742C74.8902 16.0259 74.9171 15.9818 74.9527 15.9452C74.9883 15.9085 75.0316 15.8802 75.0796 15.8623C75.1276 15.8444 75.1789 15.8373 75.23 15.8416L77.4336 15.8284ZM72.283 23.3788C72.625 23.3893 72.9651 23.325 73.2794 23.1904C73.5937 23.0558 73.8743 22.8543 74.1016 22.6C74.543 22.0332 74.7824 21.3367 74.7824 20.62C74.7824 19.9032 74.543 19.2067 74.1016 18.64C73.8751 18.3891 73.5961 18.1905 73.2842 18.0583C72.9724 17.926 72.6351 17.8632 72.2963 17.8744C71.9503 17.8635 71.6062 17.9276 71.2876 18.0621C70.969 18.1965 70.6835 18.3982 70.4511 18.6532C69.9621 19.1953 69.705 19.9056 69.7342 20.6332C69.7103 21.3536 69.9617 22.0564 70.4378 22.6C70.6708 22.8542 70.9563 23.0554 71.2748 23.1898C71.5933 23.3242 71.9372 23.3887 72.283 23.3788ZM85.2791 25.7589C86.7313 25.7589 88.1387 25.2583 89.2615 24.3424V24.3292C90.2237 23.3314 90.761 22.0024 90.761 20.62C90.761 19.2376 90.2237 17.9086 89.2615 16.9108C88.1376 15.9972 86.7307 15.4982 85.2791 15.4982C83.8275 15.4982 82.4205 15.9972 81.2966 16.9108C80.3335 17.9108 79.7959 19.242 79.7959 20.6266C79.7959 22.0112 80.3335 23.3424 81.2966 24.3424C82.4194 25.2583 83.8268 25.7589 85.2791 25.7589ZM84.2634 23.1535C83.9352 23.0289 83.6353 22.8407 83.3808 22.6C82.9178 22.0583 82.6636 21.3705 82.6636 20.6596C82.6636 19.9487 82.9178 19.2609 83.3808 18.7192C83.6353 18.4785 83.9352 18.2903 84.2634 18.1657C84.5915 18.0411 84.9412 17.9825 85.2923 17.9932C85.6412 17.9842 85.9884 18.0437 86.3142 18.1683C86.6399 18.2929 86.9377 18.4801 87.1906 18.7192C87.6536 19.2609 87.9078 19.9487 87.9078 20.6596C87.9078 21.3705 87.6536 22.0583 87.1906 22.6C86.9377 22.8391 86.6399 23.0263 86.3142 23.1509C85.9884 23.2755 85.6412 23.335 85.2923 23.326C84.9412 23.3367 84.5915 23.2781 84.2634 23.1535ZM95.5537 13.5844C95.2028 13.8898 94.7523 14.0582 94.2859 14.0582C93.8196 14.0582 93.3691 13.8898 93.0182 13.5844C92.8591 13.4351 92.7324 13.255 92.6457 13.0553C92.5591 12.8556 92.5144 12.6403 92.5144 12.4228C92.5144 12.2053 92.5591 11.99 92.6457 11.7903C92.7324 11.5905 92.8591 11.4105 93.0182 11.2612C93.3727 10.9634 93.8219 10.8 94.2859 10.8C94.75 10.8 95.1992 10.9634 95.5537 11.2612C95.7128 11.4105 95.8396 11.5905 95.9262 11.7903C96.0128 11.99 96.0575 12.2053 96.0575 12.4228C96.0575 12.6403 96.0128 12.8556 95.9262 13.0553C95.8396 13.255 95.7128 13.4351 95.5537 13.5844ZM95.8325 25.7548C95.0434 25.7933 94.2637 25.5704 93.6156 25.1212C93.3496 24.9192 93.1361 24.6568 92.9929 24.356C92.8497 24.0551 92.781 23.7246 92.7925 23.392V16.2112C92.7861 16.1594 92.7916 16.1068 92.8087 16.0574C92.8257 16.0081 92.8539 15.9632 92.891 15.9263C92.9281 15.8894 92.9732 15.8614 93.0229 15.8444C93.0725 15.8274 93.1254 15.822 93.1775 15.8284H95.4077C95.6599 15.8284 95.7794 15.9604 95.7794 16.2112V22.4416C95.7794 22.9432 96.005 23.194 96.4564 23.194C96.6577 23.2012 96.8589 23.1789 97.0537 23.128C97.3192 23.128 97.4653 23.2072 97.4785 23.4448L97.6777 25.0948C97.6872 25.1429 97.6863 25.1925 97.675 25.2402C97.6637 25.2879 97.6422 25.3327 97.612 25.3715C97.5818 25.4102 97.5436 25.4421 97.5 25.465C97.4563 25.4878 97.4083 25.5011 97.3591 25.504C96.8663 25.6654 96.3513 25.75 95.8325 25.7548ZM107.925 15.8412C107.273 15.5963 106.578 15.4842 105.882 15.5116C105.273 15.4984 104.669 15.6087 104.105 15.8356C103.542 16.0626 103.03 16.4015 102.603 16.8316C102.38 16.3987 102.032 16.0418 101.604 15.8066C101.176 15.5714 100.687 15.4687 100.2 15.5116C99.7114 15.5027 99.2254 15.5832 98.7662 15.7492C98.6729 15.7761 98.5917 15.8341 98.5361 15.9133C98.4806 15.9926 98.454 16.0884 98.4609 16.1848V17.7424C98.4609 17.9536 98.6069 18.0592 98.899 18.0592H99.337C99.4435 18.0436 99.5522 18.0531 99.6543 18.0867C99.7565 18.1204 99.8493 18.1773 99.9254 18.253C100.001 18.3286 100.059 18.4209 100.093 18.5225C100.126 18.6241 100.136 18.7321 100.12 18.838V29.662C100.111 29.7126 100.114 29.7647 100.129 29.8139C100.144 29.8631 100.172 29.9078 100.208 29.9442C100.245 29.9806 100.29 30.0076 100.339 30.0228C100.389 30.038 100.441 30.041 100.492 30.0316H102.722C102.974 30.0316 103.107 29.9128 103.107 29.662V24.8968C103.913 25.4755 104.887 25.7768 105.882 25.7548C106.579 25.7827 107.276 25.6696 107.928 25.4223C108.581 25.175 109.176 24.7986 109.678 24.316C110.617 23.3142 111.139 21.9958 111.139 20.6266C111.139 19.2573 110.617 17.939 109.678 16.9372C109.174 16.4588 108.578 16.0861 107.925 15.8412ZM104.647 23.1754C104.332 23.0417 104.047 22.846 103.811 22.6C103.331 22.0376 103.08 21.3173 103.107 20.5804C103.076 19.8429 103.328 19.1212 103.811 18.5608C104.047 18.3148 104.332 18.1191 104.647 17.9853C104.961 17.8516 105.3 17.7826 105.643 17.7826C105.985 17.7826 106.324 17.8516 106.639 17.9853C106.953 18.1191 107.238 18.3148 107.475 18.5608C107.977 19.1115 108.239 19.8377 108.205 20.5804C108.235 21.3224 107.973 22.047 107.475 22.6C107.238 22.846 106.953 23.0417 106.639 23.1754C106.324 23.3092 105.985 23.3781 105.643 23.3781C105.3 23.3781 104.961 23.3092 104.647 23.1754ZM117.404 25.7547C116.212 25.8035 115.031 25.52 113.992 24.9363C113.576 24.6868 113.221 24.3472 112.954 23.9428C112.688 23.5383 112.516 23.0793 112.453 22.5999C112.453 22.3359 112.545 22.2039 112.837 22.2039H114.789C114.882 22.2075 114.972 22.2366 115.049 22.2878C115.126 22.339 115.188 22.4105 115.227 22.4943C115.506 23.2071 116.236 23.5635 117.404 23.5635C117.811 23.5821 118.217 23.5005 118.585 23.3259C118.713 23.2689 118.822 23.1786 118.901 23.0646C118.981 22.9507 119.028 22.8175 119.037 22.6791C119.037 22.3359 118.824 22.0983 118.4 21.9399C117.896 21.7732 117.375 21.6625 116.846 21.6099C116.221 21.5395 115.6 21.4293 114.988 21.2799C114.393 21.146 113.852 20.838 113.435 20.3955C113.189 20.0948 113.008 19.747 112.903 19.3738C112.799 19.0006 112.772 18.61 112.826 18.2262C112.879 17.8424 113.012 17.4736 113.215 17.1429C113.418 16.8121 113.687 16.5264 114.006 16.3035C114.962 15.6974 116.085 15.4022 117.218 15.4587C118.315 15.4219 119.401 15.6917 120.351 16.2375C120.734 16.4533 121.064 16.7512 121.317 17.1097C121.569 17.4683 121.738 17.8783 121.811 18.3099C121.811 18.5739 121.692 18.7059 121.453 18.7059H119.488C119.405 18.7108 119.323 18.6907 119.252 18.6483C119.181 18.6059 119.125 18.5432 119.09 18.4683C118.959 18.1557 118.712 17.9052 118.4 17.7687C118.048 17.5857 117.655 17.4949 117.258 17.5047C116.869 17.4837 116.481 17.5609 116.13 17.7291C116.006 17.7766 115.899 17.8598 115.824 17.968C115.748 18.0762 115.707 18.2045 115.705 18.3363C115.713 18.5168 115.78 18.6899 115.894 18.8301C116.009 18.9702 116.166 19.0702 116.342 19.1151C116.852 19.3062 117.382 19.439 117.922 19.5111C118.543 19.5924 119.159 19.7069 119.767 19.8543C120.362 19.9882 120.903 20.2963 121.32 20.7387C121.543 20.9825 121.716 21.2678 121.827 21.5782C121.939 21.8886 121.988 22.2179 121.971 22.5471C121.982 23.0034 121.874 23.4549 121.658 23.8574C121.442 24.26 121.124 24.5999 120.736 24.8439C119.744 25.4771 118.582 25.7948 117.404 25.7547ZM135.996 25.2356C136.008 25.1895 136.01 25.1416 136.002 25.0948L135.843 23.4448C135.841 23.393 135.827 23.3423 135.802 23.2966C135.778 23.2509 135.743 23.2113 135.701 23.1809C135.659 23.1504 135.61 23.1298 135.559 23.1206C135.508 23.1115 135.455 23.114 135.405 23.128C135.206 23.1796 135 23.2019 134.794 23.194C134.356 23.194 134.13 22.9432 134.13 22.4284V16.2112C134.13 15.9604 134.011 15.8284 133.759 15.8284H131.502C131.25 15.8284 131.13 15.9604 131.13 16.2112V21.0688C131.144 21.3573 131.098 21.6456 130.995 21.9157C130.893 22.1859 130.735 22.4323 130.533 22.6396C130.319 22.8362 130.068 22.9888 129.795 23.0885C129.521 23.1882 129.231 23.233 128.94 23.2204C128.656 23.2314 128.372 23.1817 128.109 23.0747C127.846 22.9677 127.608 22.8058 127.413 22.6C127.022 22.1506 126.818 21.5701 126.842 20.9764V16.2112C126.842 15.9604 126.723 15.8284 126.471 15.8284H124.241C123.988 15.8284 123.869 15.9604 123.869 16.2112V21.3724C123.84 21.9544 123.93 22.5361 124.133 23.0828C124.336 23.6294 124.648 24.1297 125.05 24.5536C125.455 24.9581 125.941 25.274 126.476 25.4809C127.011 25.6877 127.583 25.781 128.157 25.7548C129.392 25.8193 130.604 25.408 131.542 24.6064C131.848 25.0088 132.253 25.3259 132.718 25.5271C133.183 25.7283 133.692 25.8067 134.197 25.7548C134.707 25.7458 135.212 25.6613 135.697 25.504C135.744 25.4975 135.79 25.4818 135.831 25.4576C135.872 25.4334 135.908 25.4013 135.936 25.3632C135.964 25.3251 135.985 25.2817 135.996 25.2356ZM157.096 25.0948C157.108 25.1421 157.109 25.1913 157.099 25.2391C157.09 25.2869 157.07 25.3319 157.04 25.371C157.011 25.4102 156.974 25.4424 156.93 25.4653C156.887 25.4883 156.839 25.5015 156.791 25.504C156.297 25.6635 155.783 25.7481 155.264 25.7548C154.475 25.7953 153.694 25.5723 153.047 25.1212C152.767 24.928 152.54 24.669 152.384 24.3674C152.229 24.0658 152.151 23.7307 152.158 23.392V20.29C152.186 19.6981 151.986 19.1177 151.6 18.6664C151.414 18.4601 151.184 18.2974 150.927 18.1901C150.67 18.0829 150.392 18.0336 150.113 18.046C149.862 18.0366 149.612 18.0839 149.382 18.1845C149.152 18.2851 148.948 18.4364 148.786 18.6268C148.435 19.0691 148.256 19.6218 148.281 20.1844V25.0552C148.281 25.306 148.162 25.438 147.91 25.438H145.666C145.614 25.4444 145.561 25.4389 145.512 25.422C145.462 25.405 145.417 25.377 145.38 25.3401C145.343 25.3032 145.314 25.2583 145.297 25.2089C145.28 25.1596 145.275 25.107 145.281 25.0552V20.29C145.31 19.7045 145.126 19.1283 144.764 18.6664C144.602 18.4724 144.399 18.3162 144.169 18.209C143.94 18.1017 143.69 18.0461 143.436 18.046C143.165 18.0351 142.895 18.0812 142.644 18.1813C142.392 18.2814 142.164 18.4332 141.976 18.6268C141.596 19.055 141.401 19.6143 141.432 20.1844V25.0552C141.438 25.107 141.433 25.1596 141.415 25.2089C141.398 25.2583 141.37 25.3032 141.333 25.3401C141.296 25.377 141.251 25.405 141.201 25.422C141.152 25.4389 141.099 25.4444 141.047 25.438H138.883C138.631 25.438 138.511 25.306 138.511 25.0552V18.838C138.527 18.7321 138.517 18.6241 138.483 18.5225C138.45 18.4209 138.392 18.3286 138.316 18.2529C138.24 18.1773 138.147 18.1204 138.045 18.0867C137.943 18.0531 137.834 18.0436 137.728 18.0592H137.29C136.998 18.0592 136.852 17.9536 136.852 17.7424V16.1848C136.845 16.0884 136.871 15.9926 136.927 15.9133C136.983 15.8341 137.064 15.7761 137.157 15.7492C137.616 15.5832 138.102 15.5027 138.591 15.5116C139.06 15.4719 139.53 15.5648 139.949 15.7797C140.367 15.9946 140.715 16.3226 140.954 16.726C141.402 16.3039 141.932 15.9782 142.512 15.7693C143.092 15.5603 143.71 15.4726 144.326 15.5116C144.924 15.4826 145.52 15.5941 146.067 15.8372C146.613 16.0803 147.095 16.4481 147.472 16.9108C147.911 16.436 148.451 16.0642 149.052 15.8222C149.654 15.5802 150.302 15.4741 150.95 15.5116C151.529 15.4846 152.108 15.5775 152.649 15.7842C153.191 15.991 153.683 16.3071 154.096 16.7128C154.499 17.1358 154.812 17.6359 155.015 18.1828C155.218 18.7296 155.307 19.3118 155.277 19.894V22.4416C155.277 22.9432 155.503 23.194 155.928 23.194C156.133 23.2035 156.339 23.1813 156.538 23.128C156.813 23.128 156.959 23.2336 156.976 23.4448L157.096 25.0948Z" fill="#394149"/>
</svg>
