<svg width="165" height="38" viewBox="0 0 165 38" fill="none" xmlns="http://www.w3.org/2000/svg">
<path fill-rule="evenodd" clip-rule="evenodd" d="M11.9119 33.2296V23.6861C11.495 23.9998 10.9822 24.1629 10.4588 24.148C9.97867 24.1363 9.51359 23.9797 9.12571 23.6992V33.2296C9.12571 33.5955 9.27248 33.9463 9.53374 34.205C9.79499 34.4637 10.1493 34.609 10.5188 34.609C10.8883 34.609 11.2426 34.4637 11.5039 34.205C11.7651 33.9463 11.9119 33.5955 11.9119 33.2296ZM22.8339 21.3139C23.0839 21.0663 23.423 20.9272 23.7766 20.9272C23.9672 20.9099 24.1594 20.9334 24.34 20.9962C24.5206 21.059 24.6855 21.1595 24.8234 21.2911C24.9613 21.4226 25.0689 21.5819 25.139 21.7583C25.2091 21.9347 25.24 22.124 25.2297 22.3132V23.9104C25.2297 24.2763 25.0829 24.6271 24.8216 24.8858C24.5604 25.1445 24.206 25.2898 23.8366 25.2898C23.4671 25.2898 23.1127 25.1445 22.8515 24.8858C22.5902 24.6271 22.4435 24.2763 22.4435 23.9104V22.2472C22.4435 21.8972 22.5839 21.5614 22.8339 21.3139ZM4.76644 26.854C5.15549 27.1323 5.61985 27.2886 6.09955 27.3028C6.61702 27.3327 7.13065 27.1987 7.56597 26.92V36.424C7.56597 36.7916 7.4185 37.1442 7.15599 37.4041C6.89349 37.664 6.53745 37.81 6.16621 37.81C5.79496 37.81 5.43893 37.664 5.17642 37.4041C4.91392 37.1442 4.76644 36.7916 4.76644 36.424V26.854ZM18.9 18.1437C19.0695 18.0814 19.25 18.0539 19.4306 18.0629L19.364 18.0892C19.5557 18.0699 19.7493 18.0919 19.9316 18.1537C20.1139 18.2156 20.2804 18.3159 20.4198 18.4476C20.5592 18.5793 20.6681 18.7394 20.7389 18.9168C20.8098 19.0942 20.841 19.2848 20.8304 19.4753V26.7352C20.8304 27.1028 20.6829 27.4554 20.4204 27.7153C20.1579 27.9752 19.8019 28.1212 19.4306 28.1212C19.0594 28.1212 18.7034 27.9752 18.4409 27.7153C18.1784 27.4554 18.0309 27.1028 18.0309 26.7352V19.3829C18.0306 19.2038 18.0672 19.0266 18.1383 18.862C18.2095 18.6974 18.3137 18.5488 18.4446 18.4253C18.5755 18.3019 18.7305 18.206 18.9 18.1437ZM13.605 20.4389C14.0138 20.7275 14.5026 20.8842 15.0047 20.8876L14.9381 20.914C15.4653 20.9266 15.9816 20.764 16.4045 20.452V30.0352C16.4045 30.4028 16.257 30.7554 15.9945 31.0153C15.732 31.2752 15.376 31.4212 15.0047 31.4212C14.6335 31.4212 14.2774 31.2752 14.0149 31.0153C13.7524 30.7554 13.605 30.4028 13.605 30.0352V20.4389ZM3.07339 1.43085V28.2401C3.07339 28.5691 2.94137 28.8847 2.70636 29.1174C2.47136 29.3501 2.15262 29.4809 1.82027 29.4809H1.52699C1.19464 29.4809 0.875904 29.3501 0.640896 29.1174C0.405891 28.8847 0.273865 28.5691 0.273865 28.2401V1.43085C0.277374 1.10406 0.41095 0.791843 0.645576 0.561993C0.880203 0.332146 1.19694 0.203228 1.52699 0.203247H1.82027C2.15033 0.203228 2.46706 0.332146 2.70168 0.561993C2.93631 0.791843 3.06988 1.10406 3.07339 1.43085ZM5.95291 26.2865H6.24619V26.3129C6.57854 26.3129 6.89728 26.1821 7.13228 25.9494C7.36729 25.7167 7.49932 25.4011 7.49932 25.072V4.62525C7.4958 4.29846 7.36223 3.98624 7.12761 3.75639C6.89298 3.52654 6.57624 3.39763 6.24619 3.39765H5.95291C5.62286 3.39763 5.30613 3.52654 5.0715 3.75639C4.83687 3.98624 4.7033 4.29846 4.69979 4.62525V25.0457C4.69979 25.3747 4.83181 25.6903 5.06682 25.923C5.30182 26.1557 5.62056 26.2865 5.95291 26.2865ZM10.3522 23.1449H10.6588C10.9876 23.1449 11.3029 23.0155 11.5354 22.7853C11.768 22.5551 11.8986 22.2428 11.8986 21.9173V7.79325C11.8986 7.46644 11.7684 7.15282 11.5363 6.92051C11.3041 6.68819 10.9888 6.55592 10.6588 6.55245H10.3522C10.1882 6.55244 10.0259 6.58462 9.87462 6.64714C9.72332 6.70966 9.58606 6.80127 9.47076 6.91666C9.35545 7.03205 9.26441 7.16895 9.2029 7.31941C9.14138 7.46988 9.11061 7.63093 9.11238 7.79325V21.9173C9.11238 22.2428 9.243 22.5551 9.47551 22.7853C9.70801 23.0155 10.0234 23.1449 10.3522 23.1449ZM14.7914 19.9108H15.0714H15.0847C15.2504 19.9109 15.4144 19.8783 15.5674 19.8152C15.7203 19.752 15.859 19.6594 15.9755 19.5428C16.0921 19.4262 16.1841 19.2878 16.2463 19.1357C16.3085 18.9837 16.3396 18.8209 16.3378 18.6569V11.0008C16.3378 10.6718 16.2058 10.3562 15.9708 10.1235C15.7358 9.89077 15.4171 9.76005 15.0847 9.76005H14.7914C14.6199 9.7597 14.4501 9.79422 14.2927 9.86147C14.1352 9.92872 13.9933 10.0273 13.8758 10.151C13.7583 10.2748 13.6678 10.4211 13.6097 10.5809C13.5517 10.7407 13.5274 10.9106 13.5383 11.08V18.6832C13.5418 19.01 13.6754 19.3223 13.91 19.5521C14.1446 19.782 14.4614 19.9109 14.7914 19.9108ZM19.204 17.0728H19.4973H19.5106C19.8407 17.0694 20.156 16.9371 20.3881 16.7048C20.6202 16.4725 20.7504 16.1589 20.7504 15.832V13.8652C20.7469 13.5385 20.6133 13.2262 20.3787 12.9964C20.1441 12.7665 19.8273 12.6376 19.4973 12.6376H19.204C18.874 12.6376 18.5572 12.7665 18.3226 12.9964C18.088 13.2262 17.9544 13.5385 17.9509 13.8652V15.832C17.9509 16.1611 18.0829 16.4767 18.3179 16.7094C18.5529 16.9421 18.8717 17.0728 19.204 17.0728ZM73.6082 19.3432C74.1281 19.3432 74.2481 19.5148 74.2481 19.9768V22.4848C74.2622 23.0755 74.1426 23.6619 73.8981 24.201C73.6536 24.74 73.2904 25.218 72.835 25.6C71.7041 26.4917 70.2782 26.9341 68.8357 26.8408C65.3829 26.8408 63.5032 25.006 63.5032 21.9568V17.8648C63.5032 14.8552 65.4496 13.0072 68.8357 13.0072C71.5019 13.0072 73.2349 14.05 73.9681 16.1356C74.0092 16.214 74.0312 16.3007 74.0324 16.389C74.0336 16.4772 74.014 16.5645 73.9752 16.644C73.9364 16.7234 73.8794 16.7928 73.8087 16.8466C73.7381 16.9005 73.6557 16.9372 73.5682 16.954L72.5284 17.3104C72.0751 17.4688 71.8885 17.3764 71.7285 16.9144C71.5077 16.3506 71.1033 15.8757 70.5794 15.565C70.0555 15.2542 69.4419 15.1252 68.8357 15.1984C66.876 15.1984 65.8095 16.1356 65.8095 17.8384V22.036C65.8095 23.7652 66.8893 24.676 68.8357 24.676C70.782 24.676 71.9818 23.7916 71.9818 22.498V21.5212H69.089C68.609 21.5212 68.4357 21.3364 68.4357 20.8744V19.9768C68.4357 19.5148 68.609 19.3432 69.089 19.3432H73.6082ZM52.3984 13.0599C49.0123 13.0599 47.066 14.8947 47.066 17.9439V22.0095C47.066 25.0587 49.0256 26.8935 52.3984 26.8935C55.7712 26.8935 57.7308 25.0587 57.7308 22.0095V17.9439C57.7308 14.8947 55.7845 13.0599 52.3984 13.0599ZM52.4651 15.3039C54.4114 15.3039 55.4912 16.2279 55.4912 17.9439V22.0359C55.4912 23.7255 54.4114 24.6759 52.4651 24.6759C50.5187 24.6759 49.4522 23.7651 49.4522 22.0359V17.9439C49.4522 16.2411 50.5187 15.3039 52.4651 15.3039ZM36.2678 13.9709C36.2678 13.5089 36.1079 13.3373 35.6279 13.3373H34.5481C34.0815 13.3373 33.8949 13.5089 33.8949 13.9709V25.9829C33.8949 26.4449 34.0815 26.6165 34.5481 26.6165H41.6936C42.1602 26.6165 42.3335 26.4449 42.3335 25.9829V25.0589C42.3335 24.5969 42.1602 24.4253 41.6936 24.4253H36.2678V13.9709ZM85.0862 13.0599C81.7001 13.0599 79.7538 14.8947 79.7538 17.9439V22.0095C79.7538 25.0587 81.7135 26.8935 85.0862 26.8935C88.459 26.8935 90.4187 25.0587 90.4187 22.0095V17.9439C90.4187 14.8947 88.4723 13.0599 85.0862 13.0599ZM85.1529 15.3039C87.0859 15.3039 88.1657 16.2279 88.1657 17.9439V22.0359C88.1657 23.7255 87.0992 24.6759 85.1529 24.6759C83.2065 24.6759 82.1267 23.7651 82.1267 22.0359V17.9439C82.1267 16.2411 83.2199 15.3039 85.1529 15.3039ZM96.6976 13.7201C96.6976 13.4297 96.791 13.3373 97.0842 13.3373H97.6975C97.9908 13.3373 98.0574 13.4297 98.0574 13.7201V26.2337C98.0574 26.5241 98.0574 26.6165 97.6975 26.6165H97.0842C96.791 26.6165 96.6976 26.5241 96.6976 26.2337V13.7201ZM113.162 14.5513C112.377 13.774 111.312 13.3373 110.202 13.3373H105.229C104.95 13.3373 104.843 13.4297 104.843 13.7201V26.2337C104.843 26.5241 104.95 26.6165 105.229 26.6165H105.856C106.136 26.6165 106.203 26.5241 106.203 26.2337V21.6269H110.202C111.312 21.6269 112.377 21.1902 113.162 20.4129C113.947 19.6356 114.388 18.5813 114.388 17.4821C114.388 16.3828 113.947 15.3286 113.162 14.5513ZM111.194 20.101C110.842 20.2456 110.464 20.3201 110.082 20.3201H106.083V14.5649H110.082C110.464 14.5649 110.842 14.6393 111.194 14.7839C111.547 14.9285 111.867 15.1405 112.137 15.4077C112.407 15.6749 112.621 15.9921 112.767 16.3413C112.913 16.6904 112.988 17.0646 112.988 17.4425C112.988 17.8204 112.913 18.1946 112.767 18.5437C112.621 18.8928 112.407 19.21 112.137 19.4772C111.867 19.7445 111.547 19.9564 111.194 20.101ZM124.8 13.0732C125.829 12.9607 126.867 13.18 127.761 13.6984C128.654 14.2168 129.355 15.0067 129.759 15.9508C129.865 16.162 129.759 16.3336 129.545 16.4392L128.959 16.7032C128.719 16.7956 128.626 16.7824 128.479 16.5316C128.177 15.8309 127.658 15.2435 126.996 14.8544C126.335 14.4652 125.565 14.2944 124.8 14.3668C122.547 14.3668 121.32 15.2512 121.32 16.8352C121.307 17.3193 121.471 17.7917 121.782 18.1654C122.094 18.539 122.531 18.7885 123.013 18.868C123.73 19.0995 124.474 19.2414 125.226 19.2904C126.137 19.3385 127.036 19.5209 127.892 19.8316C128.549 20.0373 129.114 20.4606 129.493 21.0303C129.872 21.6 130.041 22.2814 129.972 22.96C129.972 25.4284 128.159 26.92 124.826 26.92C123.733 27.0438 122.63 26.793 121.701 26.2094C120.772 25.6257 120.073 24.7444 119.72 23.7124C119.697 23.6654 119.684 23.6137 119.683 23.5612C119.682 23.5088 119.693 23.4567 119.714 23.4088C119.736 23.3608 119.768 23.3182 119.808 23.284C119.849 23.2498 119.896 23.2248 119.947 23.2108L120.534 22.9996C120.58 22.9809 120.629 22.9719 120.679 22.9733C120.729 22.9746 120.778 22.9862 120.823 23.0073C120.869 23.0284 120.909 23.0585 120.941 23.0958C120.974 23.1332 120.999 23.1768 121.014 23.224C121.312 23.9697 121.842 24.602 122.528 25.0292C123.213 25.4564 124.018 25.6563 124.826 25.6C127.346 25.6 128.586 24.7288 128.586 22.96C128.609 22.495 128.465 22.0369 128.18 21.6671C127.894 21.2973 127.485 21.0398 127.026 20.9404C126.336 20.7367 125.625 20.6126 124.906 20.5708L123.466 20.386C123.016 20.2913 122.571 20.1723 122.133 20.0296C121.701 19.9004 121.298 19.6897 120.947 19.4092C120.593 19.0921 120.314 18.7019 120.13 18.2662C119.946 17.8305 119.861 17.36 119.88 16.888C119.974 14.578 121.72 13.0732 124.8 13.0732ZM138.316 24.5535C137.628 23.9124 137.214 23.0355 137.157 22.1021V13.7201C137.157 13.4297 137.064 13.3373 136.784 13.3373H136.158C135.878 13.3373 135.784 13.4297 135.784 13.7201V22.0889C135.784 25.0853 137.571 26.8937 140.863 26.8937C144.156 26.8937 145.943 25.0853 145.943 22.0889V13.7201C145.943 13.4297 145.849 13.3373 145.556 13.3373H144.943C144.65 13.3373 144.556 13.4297 144.556 13.7201V22.1021C144.5 23.0355 144.085 23.9124 143.398 24.5535C142.71 25.1947 141.801 25.5517 140.857 25.5517C139.912 25.5517 139.004 25.1947 138.316 24.5535ZM164.339 13.3372C164.633 13.3372 164.726 13.4296 164.726 13.72V26.2336C164.726 26.524 164.633 26.6164 164.339 26.6164H163.78C163.5 26.6164 163.406 26.524 163.406 26.2336V18.6172C163.406 17.509 163.482 16.4021 163.633 15.304H163.553C163.136 16.3082 162.651 17.2829 162.1 18.2212L159.234 23.224C159.199 23.3108 159.138 23.385 159.059 23.4369C158.981 23.4887 158.888 23.5158 158.794 23.5144H158.42C158.325 23.5149 158.231 23.4877 158.15 23.4361C158.07 23.3845 158.006 23.3108 157.967 23.224L155.061 18.1684C154.545 17.2435 154.099 16.2816 153.728 15.2908H153.648C153.785 16.399 153.856 17.5141 153.861 18.6304V26.2336C153.861 26.524 153.768 26.6164 153.475 26.6164H152.955C152.661 26.6164 152.568 26.524 152.568 26.2336V13.72C152.568 13.4296 152.661 13.3372 152.955 13.3372H153.435C153.544 13.3271 153.654 13.3509 153.75 13.4052C153.845 13.4596 153.922 13.5419 153.968 13.6408L158.634 21.8512L163.273 13.72C163.42 13.4428 163.5 13.4032 163.793 13.4032L164.339 13.3372Z" fill="#394149"/>
</svg>
