<svg width="54" height="54" viewBox="0 0 54 54" fill="none" xmlns="http://www.w3.org/2000/svg">
<path d="M27.0001 0C15.6156 0 6.35291 9.26271 6.35291 20.6472V39.7057C6.35291 42.3333 8.4903 44.4707 11.1175 44.4707C13.7452 44.4707 15.8826 42.3333 15.8826 39.7057V23.8236C15.8826 21.1963 13.7452 19.0589 11.1175 19.0589C10.5828 19.0589 10.0769 19.1673 9.59607 19.3304C10.2738 10.3116 17.8123 3.17642 27.0001 3.17642C36.1828 3.17642 43.7193 10.305 44.4032 19.3177C43.9253 19.1541 43.4165 19.0589 42.8826 19.0589C40.2549 19.0589 38.1175 21.1963 38.1175 23.8236V39.7057C38.1175 42.3333 40.2549 44.4707 42.8826 44.4707C43.4421 44.4707 43.9715 44.3562 44.4708 44.1782V46.0589C44.4708 46.9352 43.7572 47.6472 42.8826 47.6472H31.4722C30.8142 45.8023 29.0678 44.4707 27.0001 44.4707C24.3728 44.4707 22.2354 46.6081 22.2354 49.2354C22.2354 51.8626 24.3728 54 27.0001 54C29.0678 54 30.8142 52.668 31.4722 50.8236H42.8826C45.5098 50.8236 47.6472 48.6862 47.6472 46.0589C47.6472 36.5058 47.6472 30.2106 47.6472 20.6472C47.6472 9.26271 38.3845 0 27.0001 0V0Z" fill="#F24C27"/>
<path d="M50.8236 22.528V41.0015C52.6681 40.3439 54 38.5975 54 36.5293V27.0001C54 24.9323 52.6681 23.1859 50.8236 22.528Z" fill="#F24C27"/>
<path d="M0 27.0001V36.5293C0 38.5975 1.33195 40.3439 3.17642 41.0015V22.528C1.33195 23.1859 0 24.9323 0 27.0001Z" fill="#F24C27"/>
</svg>
