<svg xmlns="http://www.w3.org/2000/svg" viewBox="0 0 500 165"><defs><style>.cls-1{fill:#fff;}.cls-2,.cls-5{fill:#a6acbe;}.cls-3{fill:#fff6f7;}.cls-4{fill:#ff4c61;fill-rule:evenodd;}.cls-5{isolation:isolate;opacity:0.4;}</style></defs><g id="Lager_2" data-name="Lager 2"><g id="Lager_3" data-name="Lager 3"><rect class="cls-1" width="500" height="165" rx="8"/><path class="cls-2" d="M141,107H139.1V97.87l-2.79.95v-1.6l4.44-1.63H141Zm10.38-4.06h1.41v1.53h-1.41V107h-1.9v-2.53h-4.92l-.05-1.16,4.91-7.69h2Zm-4.88,0h3V98.2l-.14.25ZM154,97.81a2.28,2.28,0,0,1,.66-1.69,2.39,2.39,0,0,1,1.75-.66,2.27,2.27,0,0,1,2.41,2.39v.56a2.24,2.24,0,0,1-.66,1.68,2.35,2.35,0,0,1-1.74.66,2.44,2.44,0,0,1-1.74-.64,2.3,2.3,0,0,1-.68-1.74Zm1.33.6a1.27,1.27,0,0,0,.3.88,1,1,0,0,0,.79.33,1,1,0,0,0,.78-.33,1.31,1.31,0,0,0,.3-.91v-.57a1.24,1.24,0,0,0-.3-.87,1.08,1.08,0,0,0-1.58,0,1.27,1.27,0,0,0-.29.89Zm4.14,5.8a2.23,2.23,0,0,1,.68-1.69,2.64,2.64,0,0,1,3.47,0,2.3,2.3,0,0,1,.68,1.75v.55a2.28,2.28,0,0,1-.66,1.68,2.32,2.32,0,0,1-1.74.66,2.46,2.46,0,0,1-1.77-.65,2.33,2.33,0,0,1-.66-1.73Zm1.33.61a1.26,1.26,0,0,0,.3.87,1,1,0,0,0,.8.34,1,1,0,0,0,.78-.32,1.34,1.34,0,0,0,.29-.91v-.59a1.2,1.2,0,0,0-.31-.87,1,1,0,0,0-.78-.33,1,1,0,0,0-.79.33,1.33,1.33,0,0,0-.29.9Zm-4,1.33-1-.56,5.55-8.89,1,.56Zm14.91-7.6,0,.88a3.07,3.07,0,0,1,2.44-1,2.32,2.32,0,0,1,2.32,1.3,3,3,0,0,1,2.6-1.3,2.62,2.62,0,0,1,2.07.77,3.4,3.4,0,0,1,.71,2.28V107H180v-5.5a1.7,1.7,0,0,0-.35-1.18,1.91,1.91,0,0,0-2.23,0,1.84,1.84,0,0,0-.57.9V107h-1.9v-5.56a1.35,1.35,0,0,0-1.52-1.49,1.66,1.66,0,0,0-1.62.93V107h-1.9V98.55Zm11.78,4.14a4.94,4.94,0,0,1,.49-2.23,3.51,3.51,0,0,1,1.39-1.53,3.84,3.84,0,0,1,2-.54,3.71,3.71,0,0,1,2.78,1.1,4.31,4.31,0,0,1,1.15,2.92v.45a5,5,0,0,1-.48,2.23,3.54,3.54,0,0,1-1.38,1.53,3.88,3.88,0,0,1-2.06.54,3.7,3.7,0,0,1-2.87-1.19,4.62,4.62,0,0,1-1.07-3.18Zm1.9.17a3.44,3.44,0,0,0,.54,2,1.75,1.75,0,0,0,1.5.73,1.72,1.72,0,0,0,1.49-.75,3.74,3.74,0,0,0,.54-2.2,3.42,3.42,0,0,0-.55-2,1.77,1.77,0,0,0-1.5-.75,1.72,1.72,0,0,0-1.47.75A3.62,3.62,0,0,0,185.36,102.86Zm12-2.58a4.9,4.9,0,0,0-.77-.06,1.74,1.74,0,0,0-1.76,1V107h-1.9V98.55h1.81l.05.94a2.16,2.16,0,0,1,1.91-1.1,1.84,1.84,0,0,1,.67.11Zm4.77,6.88a3.92,3.92,0,0,1-2.93-1.14,4.12,4.12,0,0,1-1.12-3v-.23a5.11,5.11,0,0,1,.48-2.26A3.72,3.72,0,0,1,199.93,99a3.62,3.62,0,0,1,2-.56,3.3,3.3,0,0,1,2.66,1.1,4.67,4.67,0,0,1,.95,3.12v.77H200a2.56,2.56,0,0,0,.7,1.65,2.1,2.1,0,0,0,1.55.61,2.57,2.57,0,0,0,2.12-1l1,1a3.46,3.46,0,0,1-1.36,1.18A4.24,4.24,0,0,1,202.12,107.16Zm-.23-7.25a1.65,1.65,0,0,0-1.27.55A2.85,2.85,0,0,0,200,102h3.61v-.14a2.25,2.25,0,0,0-.51-1.43A1.55,1.55,0,0,0,201.89,99.91Zm11.46-3.42v2.06h1.49V100h-1.49v4.72a1.06,1.06,0,0,0,.19.71.92.92,0,0,0,.69.21,3,3,0,0,0,.66-.08V107a4.66,4.66,0,0,1-1.25.18c-1.46,0-2.19-.81-2.19-2.42V100h-1.39v-1.4h1.39V96.49Zm4.82,3a3,3,0,0,1,2.35-1.08c1.81,0,2.72,1,2.75,3.09V107h-1.9v-5.45a1.63,1.63,0,0,0-.39-1.24,1.52,1.52,0,0,0-1.1-.36,1.83,1.83,0,0,0-1.71,1v6h-1.9V95h1.9ZM230.24,107a3.3,3.3,0,0,1-.22-.79,3,3,0,0,1-2.22,1,3,3,0,0,1-2.07-.73,2.32,2.32,0,0,1-.81-1.8,2.41,2.41,0,0,1,1-2.07,4.9,4.9,0,0,1,2.88-.72H230v-.56a1.46,1.46,0,0,0-.37-1,1.44,1.44,0,0,0-1.11-.39,1.72,1.72,0,0,0-1.07.32,1,1,0,0,0-.41.82h-1.9a2.12,2.12,0,0,1,.46-1.29,3.11,3.11,0,0,1,1.25-1,4.59,4.59,0,0,1,1.78-.34,3.5,3.5,0,0,1,2.36.75,2.66,2.66,0,0,1,.91,2.09v3.82a4.4,4.4,0,0,0,.32,1.82V107Zm-2.08-1.37a2.16,2.16,0,0,0,1.05-.27,1.84,1.84,0,0,0,.75-.74V103h-1a2.77,2.77,0,0,0-1.59.37,1.19,1.19,0,0,0-.53,1,1.12,1.12,0,0,0,.36.87A1.4,1.4,0,0,0,228.16,105.63Zm7.45-7.08,0,1a3.06,3.06,0,0,1,2.46-1.13c1.76,0,2.66,1,2.69,3V107h-1.9v-5.48a1.67,1.67,0,0,0-.35-1.18,1.43,1.43,0,0,0-1.13-.39,1.82,1.82,0,0,0-1.71,1v6h-1.9V98.55ZM248.76,107h-1.9V95h1.9Zm7.12,0a3.3,3.3,0,0,1-.22-.79,2.94,2.94,0,0,1-2.21,1,3,3,0,0,1-2.08-.73,2.32,2.32,0,0,1-.81-1.8,2.41,2.41,0,0,1,1-2.07,4.9,4.9,0,0,1,2.88-.72h1.16v-.56a1.46,1.46,0,0,0-.37-1,1.44,1.44,0,0,0-1.11-.39,1.72,1.72,0,0,0-1.07.32,1,1,0,0,0-.41.82h-1.9a2.12,2.12,0,0,1,.46-1.29,3.11,3.11,0,0,1,1.25-1,4.63,4.63,0,0,1,1.78-.34,3.5,3.5,0,0,1,2.36.75,2.66,2.66,0,0,1,.91,2.09v3.82a4.4,4.4,0,0,0,.32,1.82V107Zm-2.08-1.37a2.16,2.16,0,0,0,1-.27,1.84,1.84,0,0,0,.75-.74V103h-1a2.79,2.79,0,0,0-1.59.37,1.19,1.19,0,0,0-.53,1,1.12,1.12,0,0,0,.36.87A1.41,1.41,0,0,0,253.8,105.63Zm10.43-.93a.84.84,0,0,0-.43-.77,4.31,4.31,0,0,0-1.38-.47,7,7,0,0,1-1.62-.52,2.16,2.16,0,0,1-1.42-2,2.26,2.26,0,0,1,.92-1.83,3.72,3.72,0,0,1,2.35-.73,3.76,3.76,0,0,1,2.44.75,2.37,2.37,0,0,1,.94,2h-1.9a1.16,1.16,0,0,0-.4-.91,1.52,1.52,0,0,0-1.08-.37,1.74,1.74,0,0,0-1,.29.91.91,0,0,0-.39.78.8.8,0,0,0,.37.68,5.33,5.33,0,0,0,1.49.49,6.86,6.86,0,0,1,1.75.58,2.54,2.54,0,0,1,.94.81,2.07,2.07,0,0,1,.31,1.16,2.2,2.2,0,0,1-.94,1.85,4.05,4.05,0,0,1-2.48.71,4.37,4.37,0,0,1-1.85-.38,3.1,3.1,0,0,1-1.27-1,2.46,2.46,0,0,1-.45-1.41H261a1.35,1.35,0,0,0,.5,1,2.08,2.08,0,0,0,1.25.35,1.92,1.92,0,0,0,1.14-.28A.89.89,0,0,0,264.23,104.7Zm5.9-8.21v2.06h1.49V100h-1.49v4.72a1.12,1.12,0,0,0,.19.71.92.92,0,0,0,.69.21,3,3,0,0,0,.66-.08V107a4.66,4.66,0,0,1-1.25.18c-1.46,0-2.19-.81-2.19-2.42V100h-1.39v-1.4h1.39V96.49Zm9.89,7.79,1.72-5.73h2l-3.36,9.73a2.73,2.73,0,0,1-2.63,2.13,3.15,3.15,0,0,1-.91-.14v-1.46l.36,0a1.74,1.74,0,0,0,1.07-.27,1.65,1.65,0,0,0,.58-.87l.28-.73-3-8.41h2Zm8.46,2.88a3.92,3.92,0,0,1-2.93-1.14,4.12,4.12,0,0,1-1.12-3v-.23a5.11,5.11,0,0,1,.48-2.26A3.72,3.72,0,0,1,286.29,99a3.62,3.62,0,0,1,2-.56,3.3,3.3,0,0,1,2.66,1.1,4.67,4.67,0,0,1,.95,3.12v.77h-5.53A2.56,2.56,0,0,0,287,105a2.1,2.1,0,0,0,1.55.61,2.57,2.57,0,0,0,2.12-1l1,1a3.36,3.36,0,0,1-1.35,1.18A4.24,4.24,0,0,1,288.48,107.16Zm-.23-7.25a1.65,1.65,0,0,0-1.27.55,2.85,2.85,0,0,0-.6,1.52H290v-.14a2.25,2.25,0,0,0-.51-1.43A1.55,1.55,0,0,0,288.25,99.91ZM298.4,107a2.88,2.88,0,0,1-.22-.79,3,3,0,0,1-2.22,1,3,3,0,0,1-2.08-.73,2.35,2.35,0,0,1-.8-1.8,2.39,2.39,0,0,1,1-2.07,4.89,4.89,0,0,1,2.87-.72h1.17v-.56a1.51,1.51,0,0,0-.37-1,1.47,1.47,0,0,0-1.12-.39,1.71,1.71,0,0,0-1.06.32,1,1,0,0,0-.41.82h-1.9a2.06,2.06,0,0,1,.46-1.29,3,3,0,0,1,1.25-1,4.58,4.58,0,0,1,1.77-.34,3.54,3.54,0,0,1,2.37.75,2.66,2.66,0,0,1,.91,2.09v3.82a4.24,4.24,0,0,0,.32,1.82V107Zm-2.09-1.37a2.17,2.17,0,0,0,1.06-.27,1.84,1.84,0,0,0,.75-.74V103h-1a2.73,2.73,0,0,0-1.58.37,1.17,1.17,0,0,0-.53,1,1.12,1.12,0,0,0,.36.87A1.39,1.39,0,0,0,296.31,105.63Zm10.12-5.35a4.9,4.9,0,0,0-.77-.06,1.74,1.74,0,0,0-1.76,1V107H302V98.55h1.81l.05.94a2.15,2.15,0,0,1,1.91-1.1,1.84,1.84,0,0,1,.67.11Z"/><path d="M142.57,76.32A3.59,3.59,0,0,1,140,77.4a3.82,3.82,0,0,1-3-1.29,5.14,5.14,0,0,1-1.13-3.49,5.35,5.35,0,0,1,.61-2.56,4.46,4.46,0,0,1,1.7-1.82,4.68,4.68,0,0,1,2.47-.65,4.53,4.53,0,0,1,2.5.7,4.64,4.64,0,0,1,1.69,2,7.24,7.24,0,0,1,.62,3v1A8.24,8.24,0,0,1,143.66,80a6.7,6.7,0,0,1-5,2.17H138V79.78h.62Q142.27,79.6,142.57,76.32Zm-1.89-1.08a2,2,0,0,0,1.17-.35,2.28,2.28,0,0,0,.76-.85V72.88a3.85,3.85,0,0,0-.55-2.23,1.68,1.68,0,0,0-1.46-.79,1.64,1.64,0,0,0-1.4.78,3.33,3.33,0,0,0-.55,2,3.26,3.26,0,0,0,.53,1.91A1.76,1.76,0,0,0,140.68,75.24Zm16.34.88a7.15,7.15,0,0,1-1.22,4.51,4.26,4.26,0,0,1-3.57,1.57,4.31,4.31,0,0,1-3.56-1.54,7,7,0,0,1-1.26-4.39V73.65a7.12,7.12,0,0,1,1.23-4.52,4.9,4.9,0,0,1,7.12,0A6.94,6.94,0,0,1,157,73.5Zm-2.82-2.87a5.09,5.09,0,0,0-.49-2.57,1.8,1.8,0,0,0-3,0,4.94,4.94,0,0,0-.5,2.4v3.45a5.58,5.58,0,0,0,.47,2.59,1.63,1.63,0,0,0,1.53.84,1.58,1.58,0,0,0,1.49-.81,5.24,5.24,0,0,0,.48-2.48Zm16.16,7.68a3.56,3.56,0,0,1-2.89,1.27,3.37,3.37,0,0,1-2.6-1,4.24,4.24,0,0,1-.91-2.86V71.43h2.83v6.83q0,1.65,1.5,1.65a2,2,0,0,0,2-1V71.43h2.84V82h-2.66Zm7.46-9.5.09,1.22a3.69,3.69,0,0,1,3-1.41,3.09,3.09,0,0,1,2.5,1,4.71,4.71,0,0,1,.84,3V82h-2.83V75.24a1.78,1.78,0,0,0-.39-1.3,1.74,1.74,0,0,0-1.3-.41,1.93,1.93,0,0,0-1.78,1V82h-2.82V71.43ZM186,76.64a6.37,6.37,0,0,1,1.1-3.94,3.62,3.62,0,0,1,3-1.46,3.26,3.26,0,0,1,2.55,1.15V67h2.83V82H193l-.14-1.12a3.32,3.32,0,0,1-2.71,1.32,3.59,3.59,0,0,1-3-1.47A6.6,6.6,0,0,1,186,76.64Zm2.82.2a4.14,4.14,0,0,0,.52,2.28,1.67,1.67,0,0,0,1.5.79,1.9,1.9,0,0,0,1.85-1.1V74.64a1.87,1.87,0,0,0-1.83-1.11C189.5,73.53,188.82,74.64,188.82,76.84Zm13.75,5.36a5.22,5.22,0,0,1-3.79-1.43,5.09,5.09,0,0,1-1.46-3.8V76.7a6.34,6.34,0,0,1,.62-2.84,4.5,4.5,0,0,1,1.74-1.94,4.92,4.92,0,0,1,2.58-.68,4.32,4.32,0,0,1,3.4,1.37,5.49,5.49,0,0,1,1.25,3.87v1.15h-6.72a2.59,2.59,0,0,0,.82,1.66,2.48,2.48,0,0,0,1.74.63,3,3,0,0,0,2.55-1.18l1.39,1.55A4.29,4.29,0,0,1,205,81.7,5.69,5.69,0,0,1,202.57,82.2Zm-.32-8.68a1.78,1.78,0,0,0-1.37.57,3,3,0,0,0-.67,1.62h3.93v-.22a2,2,0,0,0-.51-1.45A1.81,1.81,0,0,0,202.25,73.52Zm12.21.56a8,8,0,0,0-1-.08,2.06,2.06,0,0,0-2.1,1.09V82h-2.83V71.43h2.67l.08,1.26a2.61,2.61,0,0,1,2.35-1.45,2.75,2.75,0,0,1,.88.13Zm10.88,2.73a6.35,6.35,0,0,1-1.11,3.92,3.54,3.54,0,0,1-3,1.47,3.31,3.31,0,0,1-2.59-1.12v5h-2.82V71.43h2.62l.09,1a3.33,3.33,0,0,1,2.68-1.23,3.59,3.59,0,0,1,3,1.44,6.56,6.56,0,0,1,1.08,4Zm-2.82-.2a4.18,4.18,0,0,0-.53-2.28,1.69,1.69,0,0,0-1.51-.8,1.85,1.85,0,0,0-1.83,1v4.33a1.89,1.89,0,0,0,1.85,1C221.85,79.92,222.52,78.82,222.52,76.61ZM232,82.2a5.22,5.22,0,0,1-3.79-1.43,5.08,5.08,0,0,1-1.45-3.8V76.7a6.34,6.34,0,0,1,.61-2.84,4.5,4.5,0,0,1,1.74-1.94,5,5,0,0,1,2.58-.68,4.34,4.34,0,0,1,3.41,1.37,5.54,5.54,0,0,1,1.25,3.87v1.15h-6.73a2.64,2.64,0,0,0,.82,1.66,2.51,2.51,0,0,0,1.75.63,3,3,0,0,0,2.55-1.18l1.38,1.55a4.25,4.25,0,0,1-1.71,1.41A5.77,5.77,0,0,1,232,82.2Zm-.32-8.68a1.78,1.78,0,0,0-1.37.57,3,3,0,0,0-.66,1.62h3.93v-.22A2.13,2.13,0,0,0,233,74,1.85,1.85,0,0,0,231.64,73.52Zm12.22.56a8.26,8.26,0,0,0-1-.08,2.06,2.06,0,0,0-2.1,1.09V82h-2.82V71.43h2.67l.07,1.26A2.62,2.62,0,0,1,243,71.24a2.84,2.84,0,0,1,.88.13ZM246.19,82V73.5h-1.57V71.43h1.57v-.89a3.64,3.64,0,0,1,1-2.76,3.93,3.93,0,0,1,2.86-1,6.56,6.56,0,0,1,1.43.2l0,2.19a3.6,3.6,0,0,0-.86-.09c-1.07,0-1.6.5-1.6,1.49v.85h2.1V73.5H249V82Zm6-5.38a6.3,6.3,0,0,1,.6-2.8,4.54,4.54,0,0,1,1.74-1.91,5.12,5.12,0,0,1,2.65-.67,4.75,4.75,0,0,1,3.48,1.31,5.18,5.18,0,0,1,1.52,3.55l0,.72a5.51,5.51,0,0,1-1.36,3.91,5.25,5.25,0,0,1-7.29,0,5.6,5.6,0,0,1-1.36-4Zm2.82.2a3.94,3.94,0,0,0,.57,2.31,1.85,1.85,0,0,0,1.62.79,1.88,1.88,0,0,0,1.6-.78,4.38,4.38,0,0,0,.58-2.52,4,4,0,0,0-.58-2.29,1.88,1.88,0,0,0-1.62-.81,1.83,1.83,0,0,0-1.6.81A4.36,4.36,0,0,0,255,76.82Zm14.86-2.74a8,8,0,0,0-1-.08,2.06,2.06,0,0,0-2.1,1.09V82H263.9V71.43h2.66l.08,1.26A2.61,2.61,0,0,1,269,71.24a2.75,2.75,0,0,1,.88.13Zm4-2.65.09,1.19a3.69,3.69,0,0,1,3-1.38,2.81,2.81,0,0,1,2.8,1.61A3.66,3.66,0,0,1,283,71.24a3.14,3.14,0,0,1,2.56,1,4.6,4.6,0,0,1,.84,3V82h-2.83V75.26a2,2,0,0,0-.36-1.31,1.53,1.53,0,0,0-1.24-.42,1.76,1.76,0,0,0-1.75,1.21V82h-2.83V75.27a2,2,0,0,0-.36-1.33,1.58,1.58,0,0,0-1.23-.41,1.84,1.84,0,0,0-1.74,1V82H271.2V71.43ZM291.5,82h-2.83V71.43h2.83Zm-3-13.3a1.42,1.42,0,0,1,.42-1,1.83,1.83,0,0,1,2.31,0,1.4,1.4,0,0,1,.43,1,1.37,1.37,0,0,1-.44,1,1.8,1.8,0,0,1-2.29,0A1.37,1.37,0,0,1,288.51,68.7Zm7.93,2.73.08,1.22a3.71,3.71,0,0,1,3-1.41,3.09,3.09,0,0,1,2.5,1,4.59,4.59,0,0,1,.84,3V82h-2.82V75.24a1.82,1.82,0,0,0-.39-1.3,1.76,1.76,0,0,0-1.3-.41,1.94,1.94,0,0,0-1.79,1V82h-2.82V71.43Zm8.2,5.21a6.21,6.21,0,0,1,1.15-3.92,3.77,3.77,0,0,1,3.13-1.48,3.28,3.28,0,0,1,2.7,1.19l.12-1h2.56V81.65a4.51,4.51,0,0,1-.64,2.41,4,4,0,0,1-1.77,1.56,6.18,6.18,0,0,1-2.67.54,5.81,5.81,0,0,1-2.27-.47,4,4,0,0,1-1.67-1.19l1.25-1.72A3.31,3.31,0,0,0,309.09,84a2.43,2.43,0,0,0,1.75-.6,2.24,2.24,0,0,0,.62-1.7v-.57a3.24,3.24,0,0,1-2.56,1.11,3.77,3.77,0,0,1-3.09-1.49,6.23,6.23,0,0,1-1.17-3.95Zm2.82.2A3.84,3.84,0,0,0,308,79.1a1.83,1.83,0,0,0,1.58.81,1.94,1.94,0,0,0,1.84-1V74.5a2,2,0,0,0-1.82-1,1.86,1.86,0,0,0-1.6.83A4.33,4.33,0,0,0,307.46,76.84Zm20.32,4.09a3.55,3.55,0,0,1-2.89,1.27,3.33,3.33,0,0,1-2.59-1,4.14,4.14,0,0,1-.91-2.86V71.43h2.82v6.83q0,1.65,1.5,1.65a2,2,0,0,0,2-1V71.43h2.83V82h-2.66Zm10.59-1.85a.89.89,0,0,0-.52-.81,5.74,5.74,0,0,0-1.64-.54q-3.76-.78-3.77-3.2a2.89,2.89,0,0,1,1.16-2.34,4.68,4.68,0,0,1,3.06-1,5,5,0,0,1,3.21,1,3,3,0,0,1,1.21,2.46h-2.82a1.35,1.35,0,0,0-.39-1,1.63,1.63,0,0,0-1.22-.4,1.7,1.7,0,0,0-1.1.32,1,1,0,0,0-.39.82.85.85,0,0,0,.44.76,4.59,4.59,0,0,0,1.5.5,13.6,13.6,0,0,1,1.78.47A2.92,2.92,0,0,1,341.11,79a2.76,2.76,0,0,1-1.24,2.35,5.36,5.36,0,0,1-3.2.89,5.71,5.71,0,0,1-2.36-.47,4,4,0,0,1-1.61-1.3,3,3,0,0,1-.59-1.79h2.68a1.45,1.45,0,0,0,.55,1.15,2.21,2.21,0,0,0,1.39.4,2.05,2.05,0,0,0,1.22-.3A1,1,0,0,0,338.37,79.08Zm9.43,3.12A5.22,5.22,0,0,1,344,80.77a5.08,5.08,0,0,1-1.45-3.8V76.7a6.34,6.34,0,0,1,.61-2.84,4.5,4.5,0,0,1,1.74-1.94,5,5,0,0,1,2.58-.68,4.34,4.34,0,0,1,3.41,1.37,5.54,5.54,0,0,1,1.25,3.87v1.15h-6.73a2.64,2.64,0,0,0,.82,1.66,2.51,2.51,0,0,0,1.75.63,3,3,0,0,0,2.55-1.18l1.38,1.55a4.22,4.22,0,0,1-1.72,1.41A5.69,5.69,0,0,1,347.8,82.2Zm-.32-8.68a1.78,1.78,0,0,0-1.37.57,3,3,0,0,0-.66,1.62h3.93v-.22a2.13,2.13,0,0,0-.51-1.45A1.85,1.85,0,0,0,347.48,73.52Zm12.22.56a8.12,8.12,0,0,0-1-.08,2.06,2.06,0,0,0-2.1,1.09V82h-2.82V71.43h2.67l.07,1.26a2.63,2.63,0,0,1,2.36-1.45,2.84,2.84,0,0,1,.88.13Zm7.09,5a.91.91,0,0,0-.52-.81,5.85,5.85,0,0,0-1.64-.54q-3.76-.78-3.77-3.2A2.89,2.89,0,0,1,362,72.19a4.67,4.67,0,0,1,3.06-1,5,5,0,0,1,3.21,1,3,3,0,0,1,1.21,2.46h-2.82a1.35,1.35,0,0,0-.39-1,1.63,1.63,0,0,0-1.22-.4,1.75,1.75,0,0,0-1.11.32,1,1,0,0,0-.39.82.87.87,0,0,0,.44.76,4.67,4.67,0,0,0,1.51.5,13.6,13.6,0,0,1,1.78.47A2.92,2.92,0,0,1,369.53,79a2.76,2.76,0,0,1-1.24,2.35,5.38,5.38,0,0,1-3.2.89,5.68,5.68,0,0,1-2.36-.47,4.06,4.06,0,0,1-1.62-1.3,3.06,3.06,0,0,1-.58-1.79h2.67a1.49,1.49,0,0,0,.56,1.15,2.21,2.21,0,0,0,1.39.4,2.07,2.07,0,0,0,1.22-.3A1,1,0,0,0,366.79,79.08Z"/><circle class="cls-3" cx="76" cy="83" r="36"/><path class="cls-4" d="M65.71,76.29a1,1,0,0,0-1.42,1.42l6.59,6.58a3,3,0,0,0,4.24,0l1.17-1.17a1,1,0,0,1,1.42,0l5.58,5.59-1.58,1.58a.5.5,0,0,0,.28.85l5.35.77a.51.51,0,0,0,.57-.57L87.14,86a.5.5,0,0,0-.85-.28l-1.58,1.58-5.59-5.58a3,3,0,0,0-4.24,0l-1.17,1.17a1,1,0,0,1-1.42,0Z"/><path class="cls-5" d="M445.5,78h21a1.5,1.5,0,0,1,1.5,1.5h0a1.5,1.5,0,0,1-1.5,1.5h-21a1.5,1.5,0,0,1-1.5-1.5h0A1.5,1.5,0,0,1,445.5,78Z"/><path class="cls-5" d="M445.5,85h21a1.5,1.5,0,0,1,1.5,1.5h0a1.5,1.5,0,0,1-1.5,1.5h-21a1.5,1.5,0,0,1-1.5-1.5h0A1.5,1.5,0,0,1,445.5,85Z"/></g></g></svg>