<svg xmlns="http://www.w3.org/2000/svg" viewBox="0 0 500 165"><defs><style>.cls-1{fill:#fff;}.cls-2,.cls-5{fill:#a6acbe;}.cls-3{fill:#f8f5fd;}.cls-4{fill:#6f52ed;fill-rule:evenodd;}.cls-5{isolation:isolate;opacity:0.4;}</style></defs><g id="Lager_2" data-name="Lager 2"><g id="Lager_4" data-name="Lager 4"><rect class="cls-1" width="500" height="165" rx="8"/><path class="cls-2" d="M141.76,95.57v1.57h-.24A3.76,3.76,0,0,0,139,98a3.62,3.62,0,0,0-1.14,2.41,3.09,3.09,0,0,1,2.34-1,2.88,2.88,0,0,1,2.37,1.06,4.14,4.14,0,0,1,.88,2.74,3.94,3.94,0,0,1-1,2.82,3.54,3.54,0,0,1-2.68,1.07A3.45,3.45,0,0,1,137,105.9a5,5,0,0,1-1.06-3.3V102a7,7,0,0,1,1.46-4.68,5.23,5.23,0,0,1,4.19-1.7Zm-2,5.43a2,2,0,0,0-1.15.35,2.12,2.12,0,0,0-.76.94v.58a3.44,3.44,0,0,0,.53,2,1.64,1.64,0,0,0,1.38.75,1.59,1.59,0,0,0,1.33-.64,2.61,2.61,0,0,0,.5-1.66,2.69,2.69,0,0,0-.5-1.68A1.62,1.62,0,0,0,139.72,101Zm12.39-2.37a2.65,2.65,0,0,1-.43,1.49,3.06,3.06,0,0,1-1.17,1,3.28,3.28,0,0,1,1.37,1.13,2.86,2.86,0,0,1,.48,1.63,3,3,0,0,1-1,2.38,4.59,4.59,0,0,1-5.42,0,3,3,0,0,1-1-2.37,2.9,2.9,0,0,1,.48-1.64,3.08,3.08,0,0,1,1.36-1.12,3,3,0,0,1-1.16-1,2.65,2.65,0,0,1-.43-1.49,3,3,0,0,1,.94-2.31,4.21,4.21,0,0,1,5.07,0A3,3,0,0,1,152.11,98.63Zm-1.65,5.18a1.87,1.87,0,0,0-.51-1.37,1.77,1.77,0,0,0-1.33-.52,1.73,1.73,0,0,0-1.32.52,1.89,1.89,0,0,0-.5,1.37,1.85,1.85,0,0,0,.49,1.33,2.09,2.09,0,0,0,2.69,0A1.86,1.86,0,0,0,150.46,103.81Zm-.24-5.11a1.72,1.72,0,0,0-.43-1.22,1.45,1.45,0,0,0-1.16-.49,1.53,1.53,0,0,0-1.15.46,2.06,2.06,0,0,0,0,2.49,1.51,1.51,0,0,0,1.16.46,1.48,1.48,0,0,0,1.15-.46A1.73,1.73,0,0,0,150.22,98.7Zm3.74-.89a2.26,2.26,0,0,1,.66-1.68,2.36,2.36,0,0,1,1.75-.67,2.28,2.28,0,0,1,2.41,2.39v.56a2.24,2.24,0,0,1-.66,1.68,2.35,2.35,0,0,1-1.74.66,2.44,2.44,0,0,1-1.74-.64,2.3,2.3,0,0,1-.68-1.74Zm1.33.6a1.27,1.27,0,0,0,.3.88,1,1,0,0,0,.79.33,1,1,0,0,0,.78-.33,1.31,1.31,0,0,0,.3-.91v-.57a1.24,1.24,0,0,0-.3-.87,1.08,1.08,0,0,0-1.58,0,1.27,1.27,0,0,0-.29.89Zm4.14,5.8a2.23,2.23,0,0,1,.68-1.69,2.64,2.64,0,0,1,3.47,0,2.3,2.3,0,0,1,.68,1.75v.55a2.28,2.28,0,0,1-.66,1.68,2.32,2.32,0,0,1-1.74.66,2.46,2.46,0,0,1-1.77-.65,2.33,2.33,0,0,1-.66-1.73Zm1.33.61a1.26,1.26,0,0,0,.3.87,1,1,0,0,0,.8.34,1,1,0,0,0,.78-.32,1.34,1.34,0,0,0,.29-.91v-.59a1.2,1.2,0,0,0-.31-.87,1,1,0,0,0-.78-.33,1,1,0,0,0-.79.33,1.33,1.33,0,0,0-.29.9Zm-4,1.33-1-.56,5.55-8.89,1,.56Zm14.91-7.6,0,.88a3.07,3.07,0,0,1,2.44-1,2.32,2.32,0,0,1,2.32,1.3,3,3,0,0,1,2.6-1.3,2.62,2.62,0,0,1,2.07.77,3.4,3.4,0,0,1,.71,2.28V107H180v-5.5a1.7,1.7,0,0,0-.35-1.18,1.91,1.91,0,0,0-2.23,0,1.84,1.84,0,0,0-.57.9V107h-1.9v-5.56a1.35,1.35,0,0,0-1.52-1.49,1.66,1.66,0,0,0-1.62.93V107h-1.9V98.55Zm11.78,4.14a4.94,4.94,0,0,1,.49-2.23,3.51,3.51,0,0,1,1.39-1.53,3.84,3.84,0,0,1,2-.54,3.71,3.71,0,0,1,2.78,1.1,4.31,4.31,0,0,1,1.15,2.92v.45a5,5,0,0,1-.48,2.23,3.54,3.54,0,0,1-1.38,1.53,3.88,3.88,0,0,1-2.06.54,3.7,3.7,0,0,1-2.87-1.19,4.62,4.62,0,0,1-1.07-3.18Zm1.9.17a3.44,3.44,0,0,0,.54,2,1.75,1.75,0,0,0,1.5.73,1.72,1.72,0,0,0,1.49-.75,3.74,3.74,0,0,0,.54-2.2,3.42,3.42,0,0,0-.55-2,1.77,1.77,0,0,0-1.5-.75,1.72,1.72,0,0,0-1.47.75A3.62,3.62,0,0,0,185.36,102.86Zm12-2.58a4.9,4.9,0,0,0-.77-.06,1.74,1.74,0,0,0-1.76,1V107h-1.9V98.55h1.81l.05.94a2.16,2.16,0,0,1,1.91-1.1,1.84,1.84,0,0,1,.67.11Zm4.77,6.88a3.92,3.92,0,0,1-2.93-1.14,4.12,4.12,0,0,1-1.12-3v-.23a5.11,5.11,0,0,1,.48-2.26A3.72,3.72,0,0,1,199.93,99a3.62,3.62,0,0,1,2-.56,3.3,3.3,0,0,1,2.66,1.1,4.67,4.67,0,0,1,.95,3.12v.77H200a2.53,2.53,0,0,0,.7,1.65,2.1,2.1,0,0,0,1.55.61,2.57,2.57,0,0,0,2.12-1l1,1a3.46,3.46,0,0,1-1.36,1.18A4.24,4.24,0,0,1,202.12,107.16Zm-.23-7.25a1.65,1.65,0,0,0-1.27.55A2.85,2.85,0,0,0,200,102h3.61v-.14a2.25,2.25,0,0,0-.51-1.43A1.55,1.55,0,0,0,201.89,99.91Zm11.46-3.42v2.06h1.49V100h-1.49v4.72a1.06,1.06,0,0,0,.19.71.92.92,0,0,0,.69.21,3,3,0,0,0,.66-.08V107a4.66,4.66,0,0,1-1.25.18c-1.46,0-2.19-.81-2.19-2.42V100h-1.39v-1.4h1.39V96.49Zm4.82,3a3,3,0,0,1,2.35-1.08c1.81,0,2.72,1,2.75,3.09V107h-1.9v-5.45a1.63,1.63,0,0,0-.39-1.24,1.52,1.52,0,0,0-1.1-.36,1.83,1.83,0,0,0-1.71,1v6h-1.9V95h1.9ZM230.24,107a3.3,3.3,0,0,1-.22-.79,3,3,0,0,1-2.22,1,3,3,0,0,1-2.07-.73,2.32,2.32,0,0,1-.81-1.8,2.41,2.41,0,0,1,1-2.07,4.9,4.9,0,0,1,2.88-.72H230v-.56a1.46,1.46,0,0,0-.37-1,1.44,1.44,0,0,0-1.11-.39,1.72,1.72,0,0,0-1.07.32,1,1,0,0,0-.41.82h-1.9a2.12,2.12,0,0,1,.46-1.29,3.11,3.11,0,0,1,1.25-1,4.59,4.59,0,0,1,1.78-.34,3.5,3.5,0,0,1,2.36.75,2.66,2.66,0,0,1,.91,2.09v3.82a4.4,4.4,0,0,0,.32,1.82V107Zm-2.08-1.37a2.16,2.16,0,0,0,1.05-.27,1.88,1.88,0,0,0,.75-.73V103h-1a2.77,2.77,0,0,0-1.59.37,1.19,1.19,0,0,0-.53,1,1.12,1.12,0,0,0,.36.87A1.4,1.4,0,0,0,228.16,105.63Zm7.45-7.08,0,1a3.06,3.06,0,0,1,2.46-1.13c1.76,0,2.66,1,2.69,3V107h-1.9v-5.48a1.67,1.67,0,0,0-.35-1.18,1.43,1.43,0,0,0-1.13-.39,1.82,1.82,0,0,0-1.71,1v6h-1.9V98.55ZM248.76,107h-1.9V95h1.9Zm7.12,0a3.3,3.3,0,0,1-.22-.79,2.94,2.94,0,0,1-2.21,1,3,3,0,0,1-2.08-.73,2.32,2.32,0,0,1-.81-1.8,2.41,2.41,0,0,1,1-2.07,4.9,4.9,0,0,1,2.88-.72h1.16v-.56a1.46,1.46,0,0,0-.37-1,1.44,1.44,0,0,0-1.11-.39,1.72,1.72,0,0,0-1.07.32,1,1,0,0,0-.41.82h-1.9a2.12,2.12,0,0,1,.46-1.29,3.11,3.11,0,0,1,1.25-1,4.63,4.63,0,0,1,1.78-.34,3.5,3.5,0,0,1,2.36.75,2.66,2.66,0,0,1,.91,2.09v3.82a4.4,4.4,0,0,0,.32,1.82V107Zm-2.08-1.37a2.16,2.16,0,0,0,1-.27,1.88,1.88,0,0,0,.75-.73V103h-1a2.79,2.79,0,0,0-1.59.37,1.19,1.19,0,0,0-.53,1,1.12,1.12,0,0,0,.36.87A1.41,1.41,0,0,0,253.8,105.63Zm10.43-.93a.84.84,0,0,0-.43-.77,4.31,4.31,0,0,0-1.38-.47,7,7,0,0,1-1.62-.52,2.16,2.16,0,0,1-1.42-2,2.23,2.23,0,0,1,.92-1.82,3.67,3.67,0,0,1,2.35-.74,3.76,3.76,0,0,1,2.44.75,2.37,2.37,0,0,1,.94,2h-1.9a1.16,1.16,0,0,0-.4-.91,1.52,1.52,0,0,0-1.08-.37,1.74,1.74,0,0,0-1,.29.91.91,0,0,0-.39.78.8.8,0,0,0,.37.68,5.33,5.33,0,0,0,1.49.49,6.86,6.86,0,0,1,1.75.58,2.54,2.54,0,0,1,.94.81,2.07,2.07,0,0,1,.31,1.16,2.2,2.2,0,0,1-.94,1.85,4.05,4.05,0,0,1-2.48.71,4.37,4.37,0,0,1-1.85-.38,3.1,3.1,0,0,1-1.27-1,2.46,2.46,0,0,1-.45-1.41H261a1.35,1.35,0,0,0,.5,1,2.08,2.08,0,0,0,1.25.35,1.92,1.92,0,0,0,1.14-.28A.89.89,0,0,0,264.23,104.7Zm5.9-8.21v2.06h1.49V100h-1.49v4.72a1.12,1.12,0,0,0,.19.71.92.92,0,0,0,.69.21,3,3,0,0,0,.66-.08V107a4.66,4.66,0,0,1-1.25.18c-1.46,0-2.19-.81-2.19-2.42V100h-1.39v-1.4h1.39V96.49Zm9.89,7.79,1.72-5.73h2l-3.36,9.73a2.73,2.73,0,0,1-2.63,2.13,3.15,3.15,0,0,1-.91-.14v-1.46l.36,0a1.74,1.74,0,0,0,1.07-.27,1.65,1.65,0,0,0,.58-.87l.28-.73-3-8.41h2Zm8.46,2.88a3.92,3.92,0,0,1-2.93-1.14,4.12,4.12,0,0,1-1.12-3v-.23a5.11,5.11,0,0,1,.48-2.26A3.72,3.72,0,0,1,286.29,99a3.62,3.62,0,0,1,2-.56,3.3,3.3,0,0,1,2.66,1.1,4.67,4.67,0,0,1,.95,3.12v.77h-5.53A2.53,2.53,0,0,0,287,105a2.1,2.1,0,0,0,1.55.61,2.57,2.57,0,0,0,2.12-1l1,1a3.36,3.36,0,0,1-1.35,1.18A4.24,4.24,0,0,1,288.48,107.16Zm-.23-7.25a1.65,1.65,0,0,0-1.27.55,2.85,2.85,0,0,0-.6,1.52H290v-.14a2.25,2.25,0,0,0-.51-1.43A1.55,1.55,0,0,0,288.25,99.91ZM298.4,107a2.88,2.88,0,0,1-.22-.79,3,3,0,0,1-2.22,1,3,3,0,0,1-2.08-.73,2.35,2.35,0,0,1-.8-1.8,2.39,2.39,0,0,1,1-2.07,4.89,4.89,0,0,1,2.87-.72h1.17v-.56a1.51,1.51,0,0,0-.37-1,1.47,1.47,0,0,0-1.12-.39,1.71,1.71,0,0,0-1.06.32,1,1,0,0,0-.41.82h-1.9a2.06,2.06,0,0,1,.46-1.29,3,3,0,0,1,1.25-1,4.58,4.58,0,0,1,1.77-.34,3.54,3.54,0,0,1,2.37.75,2.66,2.66,0,0,1,.91,2.09v3.82a4.24,4.24,0,0,0,.32,1.82V107Zm-2.09-1.37a2.17,2.17,0,0,0,1.06-.27,1.88,1.88,0,0,0,.75-.73V103h-1a2.73,2.73,0,0,0-1.58.37,1.17,1.17,0,0,0-.53,1,1.12,1.12,0,0,0,.36.87A1.39,1.39,0,0,0,296.31,105.63Zm10.12-5.35a4.9,4.9,0,0,0-.77-.06,1.74,1.74,0,0,0-1.76,1V107H302V98.55h1.81l.05.94a2.15,2.15,0,0,1,1.91-1.1,1.84,1.84,0,0,1,.67.11Z"/><path d="M143.62,67.63V70h-.27a4.79,4.79,0,0,0-3.09,1,4,4,0,0,0-1.39,2.68,3.83,3.83,0,0,1,2.86-1.15,3.62,3.62,0,0,1,3,1.33,5.3,5.3,0,0,1,1.09,3.49,5.23,5.23,0,0,1-.6,2.51,4.34,4.34,0,0,1-1.7,1.75,4.89,4.89,0,0,1-2.48.63,4.66,4.66,0,0,1-3.64-1.57A6.11,6.11,0,0,1,136,76.46v-1a9.08,9.08,0,0,1,.87-4.08,6.42,6.42,0,0,1,2.5-2.75,7.42,7.42,0,0,1,3.8-1Zm-2.75,7.12a2.15,2.15,0,0,0-1.24.37,2.05,2.05,0,0,0-.82.93v.86a3.76,3.76,0,0,0,.56,2.22,1.9,1.9,0,0,0,3,.08,2.94,2.94,0,0,0,.57-1.87,2.9,2.9,0,0,0-.57-1.87A1.83,1.83,0,0,0,140.87,74.75ZM157,76.12a7.15,7.15,0,0,1-1.22,4.51,4.26,4.26,0,0,1-3.57,1.57,4.31,4.31,0,0,1-3.56-1.54,7,7,0,0,1-1.26-4.39V73.65a7.12,7.12,0,0,1,1.23-4.52,4.9,4.9,0,0,1,7.12,0A6.94,6.94,0,0,1,157,73.5Zm-2.82-2.87a5.09,5.09,0,0,0-.49-2.57,1.8,1.8,0,0,0-3,0,4.94,4.94,0,0,0-.5,2.4v3.45a5.58,5.58,0,0,0,.47,2.59,1.63,1.63,0,0,0,1.53.84,1.58,1.58,0,0,0,1.49-.81,5.24,5.24,0,0,0,.48-2.48ZM168.68,82h-9.74V80.07l4.6-4.91a11.29,11.29,0,0,0,1.39-1.8,2.88,2.88,0,0,0,.46-1.47,2.14,2.14,0,0,0-.48-1.48,1.7,1.7,0,0,0-1.37-.55,1.86,1.86,0,0,0-1.51.67,2.61,2.61,0,0,0-.55,1.72h-2.83a4.71,4.71,0,0,1,.62-2.37A4.29,4.29,0,0,1,161,68.2a5.33,5.33,0,0,1,2.57-.61,5,5,0,0,1,3.41,1,3.71,3.71,0,0,1,1.22,3,4.85,4.85,0,0,1-.54,2.15,12,12,0,0,1-1.88,2.55l-3.23,3.4h6.11Zm13.17-1.07A3.56,3.56,0,0,1,179,82.2a3.36,3.36,0,0,1-2.6-1,4.14,4.14,0,0,1-.91-2.86V71.43h2.82v6.83q0,1.65,1.5,1.65a2,2,0,0,0,2-1V71.43h2.83V82h-2.66Zm10.58-1.85a.89.89,0,0,0-.52-.81,5.63,5.63,0,0,0-1.64-.54q-3.77-.78-3.77-3.2a2.87,2.87,0,0,1,1.17-2.34,4.66,4.66,0,0,1,3.05-1,5,5,0,0,1,3.22,1,3,3,0,0,1,1.21,2.46h-2.83a1.35,1.35,0,0,0-.39-1,1.62,1.62,0,0,0-1.22-.4,1.72,1.72,0,0,0-1.1.32,1,1,0,0,0-.39.82.87.87,0,0,0,.44.76,4.68,4.68,0,0,0,1.5.5,12.8,12.8,0,0,1,1.78.47A2.93,2.93,0,0,1,195.18,79a2.79,2.79,0,0,1-1.24,2.35,5.42,5.42,0,0,1-3.21.89,5.71,5.71,0,0,1-2.36-.47,4.1,4.1,0,0,1-1.61-1.3,3.07,3.07,0,0,1-.59-1.79h2.68a1.45,1.45,0,0,0,.55,1.15,2.21,2.21,0,0,0,1.39.4,2.05,2.05,0,0,0,1.22-.3A1,1,0,0,0,192.43,79.08Zm9.44,3.12a5.2,5.2,0,0,1-3.79-1.43,5.09,5.09,0,0,1-1.46-3.8V76.7a6.34,6.34,0,0,1,.62-2.84A4.5,4.5,0,0,1,199,71.92a4.91,4.91,0,0,1,2.57-.68A4.34,4.34,0,0,1,205,72.61a5.54,5.54,0,0,1,1.25,3.87v1.15h-6.73a2.64,2.64,0,0,0,.82,1.66,2.51,2.51,0,0,0,1.75.63,3,3,0,0,0,2.55-1.18L206,80.29a4.35,4.35,0,0,1-1.72,1.41A5.76,5.76,0,0,1,201.87,82.2Zm-.33-8.68a1.76,1.76,0,0,0-1.36.57,3,3,0,0,0-.67,1.62h3.93v-.22a2.09,2.09,0,0,0-.51-1.45A1.85,1.85,0,0,0,201.54,73.52Zm12.22.56a8,8,0,0,0-1-.08,2.05,2.05,0,0,0-2.09,1.09V82h-2.83V71.43h2.67l.08,1.26a2.6,2.6,0,0,1,2.35-1.45,2.84,2.84,0,0,1,.88.13Zm7.09,5a.89.89,0,0,0-.52-.81,5.74,5.74,0,0,0-1.64-.54q-3.76-.78-3.77-3.2a2.89,2.89,0,0,1,1.16-2.34,4.68,4.68,0,0,1,3.06-1,5,5,0,0,1,3.21,1,3,3,0,0,1,1.21,2.46h-2.82a1.35,1.35,0,0,0-.39-1,1.63,1.63,0,0,0-1.22-.4,1.72,1.72,0,0,0-1.1.32,1,1,0,0,0-.39.82.85.85,0,0,0,.44.76,4.68,4.68,0,0,0,1.5.5,13.19,13.19,0,0,1,1.78.47A2.92,2.92,0,0,1,223.59,79a2.76,2.76,0,0,1-1.24,2.35,5.36,5.36,0,0,1-3.2.89,5.68,5.68,0,0,1-2.36-.47,4,4,0,0,1-1.61-1.3,3.07,3.07,0,0,1-.59-1.79h2.68a1.45,1.45,0,0,0,.55,1.15,2.21,2.21,0,0,0,1.39.4,2.05,2.05,0,0,0,1.22-.3A1,1,0,0,0,220.85,79.08ZM233.38,82h-2.83V71.43h2.83Zm-3-13.3a1.42,1.42,0,0,1,.42-1,1.64,1.64,0,0,1,1.16-.41,1.63,1.63,0,0,1,1.16.41,1.42,1.42,0,0,1,.42,1,1.34,1.34,0,0,1-.44,1,1.53,1.53,0,0,1-1.14.41,1.59,1.59,0,0,1-1.15-.41A1.37,1.37,0,0,1,230.38,68.7Zm4.89,7.94a6.38,6.38,0,0,1,1.11-3.94,3.61,3.61,0,0,1,3-1.46A3.23,3.23,0,0,1,242,72.39V67h2.83V82h-2.54l-.14-1.12a3.32,3.32,0,0,1-2.71,1.32,3.59,3.59,0,0,1-3-1.47A6.61,6.61,0,0,1,235.27,76.64Zm2.83.2a4.23,4.23,0,0,0,.51,2.28,1.69,1.69,0,0,0,1.51.79,1.89,1.89,0,0,0,1.84-1.1V74.64a1.86,1.86,0,0,0-1.82-1.11C238.78,73.53,238.1,74.64,238.1,76.84Zm13.75,5.36a5.2,5.2,0,0,1-3.79-1.43A5.09,5.09,0,0,1,246.6,77V76.7a6.34,6.34,0,0,1,.62-2.84A4.5,4.5,0,0,1,249,71.92a4.91,4.91,0,0,1,2.57-.68,4.33,4.33,0,0,1,3.41,1.37,5.54,5.54,0,0,1,1.25,3.87v1.15h-6.73a2.64,2.64,0,0,0,.82,1.66,2.51,2.51,0,0,0,1.75.63,3,3,0,0,0,2.55-1.18L256,80.29a4.35,4.35,0,0,1-1.72,1.41A5.73,5.73,0,0,1,251.85,82.2Zm-.33-8.68a1.76,1.76,0,0,0-1.36.57,3,3,0,0,0-.67,1.62h3.93v-.22a2.09,2.09,0,0,0-.51-1.45A1.83,1.83,0,0,0,251.52,73.52Zm8.88-2.09.09,1.22a3.69,3.69,0,0,1,3-1.41,3.08,3.08,0,0,1,2.5,1,4.59,4.59,0,0,1,.84,3V82H264V75.24a1.82,1.82,0,0,0-.39-1.3,1.74,1.74,0,0,0-1.3-.41,1.93,1.93,0,0,0-1.78,1V82h-2.83V71.43Zm12-2.59v2.59h1.81V73.5h-1.81v5.28a1.26,1.26,0,0,0,.23.84,1.12,1.12,0,0,0,.86.25,4.15,4.15,0,0,0,.83-.07v2.14a5.86,5.86,0,0,1-1.71.26q-3,0-3-3V73.5H268V71.43h1.54V68.84ZM278.75,82h-2.83V71.43h2.83Zm-3-13.3a1.42,1.42,0,0,1,.42-1,1.64,1.64,0,0,1,1.16-.41,1.63,1.63,0,0,1,1.16.41,1.43,1.43,0,0,1,.43,1,1.37,1.37,0,0,1-.44,1,1.57,1.57,0,0,1-1.15.41,1.61,1.61,0,0,1-1.15-.41A1.37,1.37,0,0,1,275.75,68.7Zm6,13.3V73.5H280.2V71.43h1.57V71A4,4,0,0,1,283,67.88a5,5,0,0,1,3.41-1.09,11.52,11.52,0,0,1,3.2.58l-.41,2.34a13.11,13.11,0,0,0-1.49-.37,7.9,7.9,0,0,0-1.13-.08c-1.31,0-2,.58-2,1.74v.43h2.08V73.5H284.6V82Zm9.15,0h-2.83V71.43h2.83Zm7.19.2a5.19,5.19,0,0,1-3.78-1.43,5.09,5.09,0,0,1-1.46-3.8V76.7a6.34,6.34,0,0,1,.62-2.84,4.5,4.5,0,0,1,1.74-1.94,4.91,4.91,0,0,1,2.57-.68,4.34,4.34,0,0,1,3.41,1.37,5.54,5.54,0,0,1,1.25,3.87v1.15h-6.73a2.64,2.64,0,0,0,.82,1.66,2.52,2.52,0,0,0,1.75.63,3,3,0,0,0,2.55-1.18l1.39,1.55a4.35,4.35,0,0,1-1.72,1.41A5.74,5.74,0,0,1,298.11,82.2Zm-.32-8.68a1.76,1.76,0,0,0-1.36.57,3,3,0,0,0-.67,1.62h3.93v-.22a2.09,2.09,0,0,0-.51-1.45A1.85,1.85,0,0,0,297.79,73.52Zm5.84,3.12a6.38,6.38,0,0,1,1.11-3.94,3.61,3.61,0,0,1,3-1.46,3.23,3.23,0,0,1,2.55,1.15V67h2.83V82h-2.54l-.14-1.12a3.32,3.32,0,0,1-2.72,1.32,3.58,3.58,0,0,1-3-1.47A6.61,6.61,0,0,1,303.63,76.64Zm2.82.2a4.23,4.23,0,0,0,.52,2.28,1.69,1.69,0,0,0,1.51.79,1.89,1.89,0,0,0,1.84-1.1V74.64a1.86,1.86,0,0,0-1.82-1.11C307.14,73.53,306.45,74.64,306.45,76.84Z"/><circle class="cls-3" cx="76" cy="83" r="36"/><path class="cls-4" d="M76.24,73A4.37,4.37,0,0,0,72,75.76a5.67,5.67,0,0,0,.62,4.78c.17.32.35.63.53,1l.09.16c.2.37.42.76.61,1.15a6,6,0,0,1,.7,2.63,3.35,3.35,0,0,1-1.68,2.69,18.47,18.47,0,0,1-2.65,1.41l-.25.12a13.17,13.17,0,0,0-2.55,1.42c-.64.5-.87.92-.87,1.36a1,1,0,0,1-2,0,3.76,3.76,0,0,1,1.63-2.94,16,16,0,0,1,3-1.65l.2-.1a16.86,16.86,0,0,0,2.4-1.26c.67-.47.82-.81.82-1a4.16,4.16,0,0,0-.5-1.76c-.16-.33-.35-.68-.56-1.05l-.09-.15c-.18-.32-.37-.67-.55-1a7.71,7.71,0,0,1-.75-6.34A6.37,6.37,0,0,1,76.22,71a6.29,6.29,0,0,1,6.23,4.12,7.28,7.28,0,0,1-1,6.4c-.23.38-.44.7-.63,1s-.5.79-.73,1.21a3.62,3.62,0,0,0-.56,1.71c0,.21.1.48.76.87a14.37,14.37,0,0,0,2,.88l.66.26a11.14,11.14,0,0,1,3,1.66,4.2,4.2,0,0,1,1.61,3.33,1,1,0,0,1-2,0,2.25,2.25,0,0,0-.89-1.81,9.62,9.62,0,0,0-2.49-1.33l-.55-.22a16.09,16.09,0,0,1-2.33-1,3.06,3.06,0,0,1-1.74-2.59,5.58,5.58,0,0,1,.8-2.68c.25-.44.57-1,.87-1.42l.54-.85a5.32,5.32,0,0,0,.84-4.73A4.27,4.27,0,0,0,76.24,73Z"/><path class="cls-5" d="M445.5,78h21a1.5,1.5,0,0,1,1.5,1.5h0a1.5,1.5,0,0,1-1.5,1.5h-21a1.5,1.5,0,0,1-1.5-1.5h0A1.5,1.5,0,0,1,445.5,78Z"/><path class="cls-5" d="M445.5,85h21a1.5,1.5,0,0,1,1.5,1.5h0a1.5,1.5,0,0,1-1.5,1.5h-21a1.5,1.5,0,0,1-1.5-1.5h0A1.5,1.5,0,0,1,445.5,85Z"/></g></g></svg>